<?xml version="1.0" encoding="utf-8"?>
<!-- Generator: Adobe Illustrator 21.0.0, SVG Export Plug-In . SVG Version: 6.00 Build 0)  -->
<svg version="1.1" id="Camada_1" xmlns="http://www.w3.org/2000/svg" xmlns:xlink="http://www.w3.org/1999/xlink" x="0px" y="0px"
	 viewBox="0 0 48 48" style="enable-background:new 0 0 48 48;" xml:space="preserve">
<style type="text/css">
	.st0{fill:none;}
	.st1{fill:#282828;}
	.st2{fill:#FFCB05;}
	.st3{fill:#757575;}
	.st4{fill:#DDE9E9;}
	.st5{fill:#ACC9CB;}
	.st6{fill:#FFFFFF;}
	.st7{fill:#FDBD10;}
	.st8{fill:#F7991C;}
	.st9{opacity:0.4;fill:#FFFFFF;}
	.st10{fill:#F1F2F2;}
	.st11{fill:none;stroke:#FDBD10;stroke-width:3;stroke-linecap:round;stroke-linejoin:round;stroke-miterlimit:10;}
	.st12{fill-rule:evenodd;clip-rule:evenodd;fill:url(#SVGID_1_);}
	.st13{fill:url(#SVGID_2_);}
	.st14{fill-rule:evenodd;clip-rule:evenodd;fill:url(#SVGID_3_);}
	.st15{fill:url(#SVGID_4_);}
	.st16{fill:#D6D6D6;}
	.st17{fill-rule:evenodd;clip-rule:evenodd;fill:#D6D6D6;}
	.st18{fill:#414042;}
	.st19{fill:#D2D2D2;}
	.st20{fill:#414142;}
	.st21{fill:#FFFEFE;}
	.st22{fill:none;stroke:#ED1C24;stroke-width:2;stroke-miterlimit:10;}
</style>
<g>
	<g>
		<path class="st2" d="M4,36.3c0,0.9,0.7,1.5,1.5,1.5h36.9c0.9,0,1.5-0.7,1.5-1.5V20.9H4V36.3z M31.7,29.4c0-0.4,0.3-0.8,0.8-0.8
			h7.7c0.4,0,0.8,0.3,0.8,0.8v3.1c0,0.4-0.3,0.8-0.8,0.8h-7.7c-0.4,0-0.8-0.3-0.8-0.8V29.4z"/>
		<path class="st2" d="M42.5,10.2H5.5c-0.9,0-1.5,0.7-1.5,1.5v4.6h40v-4.6C44,10.8,43.3,10.2,42.5,10.2z"/>
	</g>
	<path class="st0" d="M0,0h48v48H0V0z"/>
</g>
</svg>
