<?xml version="1.0" encoding="utf-8"?>
<!-- Generator: Adobe Illustrator 21.0.0, SVG Export Plug-In . SVG Version: 6.00 Build 0)  -->
<svg version="1.1" id="Camada_1" xmlns="http://www.w3.org/2000/svg" xmlns:xlink="http://www.w3.org/1999/xlink" x="0px" y="0px"
	 viewBox="0 0 48 48" style="enable-background:new 0 0 48 48;" xml:space="preserve">
<style type="text/css">
	.st0{fill:none;}
	.st1{fill:#282828;}
	.st2{fill:#FFCB05;}
	.st3{fill:#757575;}
	.st4{fill:#DDE9E9;}
	.st5{fill:#ACC9CB;}
	.st6{fill:#FFFFFF;}
	.st7{fill:#FDBD10;}
	.st8{fill:#F7991C;}
	.st9{opacity:0.4;fill:#FFFFFF;}
	.st10{fill:#F1F2F2;}
	.st11{fill:none;stroke:#FDBD10;stroke-width:3;stroke-linecap:round;stroke-linejoin:round;stroke-miterlimit:10;}
	.st12{fill-rule:evenodd;clip-rule:evenodd;fill:url(#SVGID_1_);}
	.st13{fill:url(#SVGID_2_);}
	.st14{fill-rule:evenodd;clip-rule:evenodd;fill:url(#SVGID_3_);}
	.st15{fill:url(#SVGID_4_);}
	.st16{fill:#D6D6D6;}
	.st17{fill-rule:evenodd;clip-rule:evenodd;fill:#D6D6D6;}
	.st18{fill:#414042;}
	.st19{fill:#D2D2D2;}
	.st20{fill:#414142;}
	.st21{fill:#FFFEFE;}
	.st22{fill:none;stroke:#ED1C24;stroke-width:2;stroke-miterlimit:10;}
</style>
<g>
	<path class="st0" d="M0,0h48v48H0V0z"/>
	<path class="st2" d="M44,11.4l-9.2-7.7l-2.6,3.1l9.2,7.7L44,11.4z M15.8,6.8l-2.6-3.1L4,11.4l2.6,3.1L15.8,6.8z M25,16h-3v12
		l9.5,5.7l1.5-2.5l-8-4.7V16z M24,8C14,8,6,16.1,6,26s8,18,18,18s18-8.1,18-18S33.9,8,24,8z M24,40c-7.7,0-14-6.3-14-14
		s6.3-14,14-14s14,6.3,14,14S31.7,40,24,40z"/>
</g>
</svg>
