<?xml version="1.0" encoding="utf-8"?>
<!-- Generator: Adobe Illustrator 21.0.0, SVG Export Plug-In . SVG Version: 6.00 Build 0)  -->
<svg version="1.1" id="Camada_1" xmlns="http://www.w3.org/2000/svg" xmlns:xlink="http://www.w3.org/1999/xlink" x="0px" y="0px"
	 viewBox="0 0 48 48" style="enable-background:new 0 0 48 48;" xml:space="preserve">
<style type="text/css">
	.st0{fill:none;}
	.st1{fill:#282828;}
	.st2{fill:#FFCB05;}
	.st3{fill:#757575;}
	.st4{fill:#DDE9E9;}
	.st5{fill:#ACC9CB;}
	.st6{fill:#FFFFFF;}
	.st7{fill:#FDBD10;}
	.st8{fill:#F7991C;}
	.st9{opacity:0.4;fill:#FFFFFF;}
	.st10{fill:#F1F2F2;}
	.st11{fill:none;stroke:#FDBD10;stroke-width:3;stroke-linecap:round;stroke-linejoin:round;stroke-miterlimit:10;}
	.st12{fill-rule:evenodd;clip-rule:evenodd;fill:url(#SVGID_1_);}
	.st13{fill:url(#SVGID_2_);}
	.st14{fill-rule:evenodd;clip-rule:evenodd;fill:url(#SVGID_3_);}
	.st15{fill:url(#SVGID_4_);}
	.st16{fill:#D6D6D6;}
	.st17{fill-rule:evenodd;clip-rule:evenodd;fill:#D6D6D6;}
	.st18{fill:#414042;}
	.st19{fill:#D2D2D2;}
	.st20{fill:#414142;}
	.st21{fill:#FFFEFE;}
	.st22{fill:none;stroke:#ED1C24;stroke-width:2;stroke-miterlimit:10;}
</style>
<g>
	<g>
		<path class="st2" d="M11.8,12.9l-2.5-1.6c-0.1-0.1-0.3-0.1-0.5-0.1c-0.1,0-0.1,0-0.2,0c-0.2,0-0.4,0.2-0.5,0.4l-5.8,9.1
			c-0.2,0.4-0.1,0.9,0.3,1.2l2.5,1.6c0.2,0.1,0.4,0.2,0.6,0.1c0.2,0,0.4-0.2,0.5-0.4L12,14C12.3,13.6,12.2,13.1,11.8,12.9z"/>
		<path class="st2" d="M35.3,32.5l0.2-0.1L35.3,32.5L35.3,32.5c-0.5-0.8-1.1-1.6-1.5-2.2l0-0.1l-1.2-1.8c-0.2-0.3-0.5-0.4-0.8-0.4
			c-0.2,0-0.4,0.1-0.5,0.2c-0.2,0.1-0.4,0.4-0.4,0.6c-0.1,0.3,0,0.5,0.2,0.7l2.8,4.1c0,0,0.1,0.1,0.1,0.2l0,0.1L34,34
			c0.1,0.2,0.4,0.4,0.6,0.4c0.3,0,0.5,0,0.7-0.2c0.4-0.3,0.5-0.9,0.2-1.4L35.3,32.5z"/>
		<path class="st2" d="M23.2,18.6c0.6-0.4,1.5-0.5,2.1-0.1l5.7,3c0.2,0.1,0.4,0.1,0.6-0.1c0.1-0.1,0.2-0.2,0.2-0.4
			c0-0.2,0-0.3-0.1-0.4l-2.7-3.5c-0.5-0.6-1.1-1-1.9-1.1l-3.1-0.6c-1.7-0.3-3.5-0.3-5.2,0.1l-3.3,0.7c-0.4,0.1-0.8,0-1.2-0.1l-1-0.4
			c-0.1,0-0.1,0-0.2,0c-0.2,0-0.3,0.1-0.4,0.2l-4.8,7.7c-0.1,0.2-0.1,0.4,0.1,0.6l2.8,2.6c0.1-0.1,0.2-0.1,0.2-0.2L23.2,18.6
			L23.2,18.6z"/>
		<path class="st2" d="M27.8,34c-0.1-0.1-0.3-0.2-0.5-0.3c0,0-0.1,0-0.1,0c-0.2,0-0.3,0.1-0.5,0.2c-0.3,0.2-0.4,0.7-0.1,1l1.1,1.6
			c0.2,0.3,0.6,0.4,0.9,0.3c0.2-0.1,0.4-0.3,0.4-0.5c0-0.2,0-0.3,0-0.5L27.8,34z"/>
		<path class="st2" d="M30,31c-0.2-0.2-0.4-0.3-0.6-0.4c0,0-0.1,0-0.1,0c-0.2,0-0.4,0.1-0.6,0.2c-0.4,0.3-0.5,0.9-0.2,1.3l0.7,1
			c0,0,0,0,0.1,0.1l1.1,1.6c0,0,0.1,0.1,0.1,0.1l0.4,0.5c0.3,0.4,0.8,0.5,1.3,0.3c0.3-0.1,0.4-0.4,0.5-0.6c0.1-0.2,0-0.4-0.1-0.6
			L30,31z"/>
		<path class="st2" d="M35.6,16.6c-0.3-0.5-1-0.7-1.5-0.4l-0.5,0.3c-0.2,0.1-0.4,0.2-0.6,0.2l-2,0.3l2,2.6c0.3,0.4,0.5,0.8,0.5,1.2
			c0,0.8-0.3,1.5-1,1.9c-0.6,0.4-1.5,0.4-2.2,0.1l-5.6-2.9c-0.2-0.1-0.4-0.1-0.6,0l-12.3,8c-0.3,0.2-0.5,0.4-0.5,0.8
			c-0.1,0.3,0,0.6,0.1,0.9c0.3,0.6,1.1,0.7,1.7,0.4l6.6-3.9c0.2-0.1,0.4-0.1,0.6-0.1c0.2,0.1,0.4,0.2,0.5,0.4
			c0.1,0.2,0.1,0.4,0.1,0.6c0,0.2-0.2,0.4-0.4,0.5l-6,3.6c-0.2,0.1-0.3,0.3-0.4,0.5c0,0.2,0,0.4,0.1,0.6c0.4,0.6,1.2,0.8,1.9,0.5
			l5.2-2.8c0.2-0.1,0.4-0.1,0.6-0.1c0.2,0.1,0.4,0.2,0.5,0.4c0.2,0.4,0.1,0.8-0.3,1l-3.8,2l-0.9,0.6c-0.2,0.1-0.3,0.3-0.3,0.5
			c0,0.2,0,0.4,0.2,0.6c0.4,0.6,1.1,0.8,1.7,0.5l4-2c0.1-0.1,0.2-0.1,0.3-0.1c0.3,0,0.6,0.2,0.7,0.4c0.2,0.4,0,0.8-0.3,1l-2.9,1.5
			c-0.1,0.1-0.2,0.2-0.2,0.3c0,0,0,0.2,0.1,0.2c0.6,0.3,1.2,0.3,1.9,0.2l3-0.5l-0.2-0.3c-0.4-0.6-0.6-1.4-0.3-2
			c0.3-0.8,0.9-1.4,1.7-1.6c-0.3-1,0-2,0.8-2.7c0.4-0.3,1-0.5,1.5-0.6c0-0.2,0-0.4,0-0.6c0.2-0.8,0.6-1.4,1.3-1.8
			c1.1-0.6,2.5-0.2,3.2,0.8c0.2-0.3,0.5-0.6,0.8-0.8c1-0.6,2.2-0.5,3,0.3l2.1-2.7c0.3-0.4,0.3-0.9,0.1-1.3L35.6,16.6z"/>
		<path class="st2" d="M36.6,28.3c-0.2-0.3-0.5-0.4-0.8-0.4c-0.2,0-0.4,0.1-0.5,0.2c-0.2,0.1-0.4,0.4-0.4,0.6
			c-0.1,0.2,0,0.5,0.1,0.7l1.6,2.3c0.1,0.2,0.3,0.3,0.5,0.3c0.3,0,0.5,0,0.7-0.2c0.5-0.3,0.6-0.9,0.3-1.4L36.6,28.3z"/>
		<path class="st2" d="M45.7,21l-5.8-9.1c-0.1-0.2-0.3-0.3-0.5-0.4c-0.1,0-0.1,0-0.2,0c-0.2,0-0.3,0-0.4,0.1l-2.5,1.6
			c-0.4,0.2-0.5,0.8-0.3,1.2l5.8,9.1c0.1,0.2,0.3,0.3,0.5,0.4c0.2,0,0.4,0,0.6-0.1l2.5-1.6c0.2-0.1,0.3-0.3,0.4-0.5
			C45.8,21.4,45.8,21.2,45.7,21L45.7,21z"/>
	</g>
	<path class="st0" d="M0,0h48v48H0V0z"/>
</g>
</svg>
