<?xml version="1.0" encoding="utf-8"?>
<!-- Generator: Adobe Illustrator 21.0.0, SVG Export Plug-In . SVG Version: 6.00 Build 0)  -->
<svg version="1.1" id="Camada_1" xmlns="http://www.w3.org/2000/svg" xmlns:xlink="http://www.w3.org/1999/xlink" x="0px" y="0px"
	 viewBox="0 0 543.4 338.5" style="enable-background:new 0 0 543.4 338.5;" xml:space="preserve">
<style type="text/css">
	.st0{fill:none;}
	.st1{fill:#282828;}
	.st2{fill:#FFCB05;}
	.st3{fill:#757575;}
	.st4{fill:#DDE9E9;}
	.st5{fill:#ACC9CB;}
	.st6{fill:#FFFFFF;}
	.st7{fill:#FDBD10;}
	.st8{fill:#F7991C;}
	.st9{opacity:0.4;fill:#FFFFFF;}
	.st10{fill:#F1F2F2;}
	.st11{fill:none;stroke:#FDBD10;stroke-width:3;stroke-linecap:round;stroke-linejoin:round;stroke-miterlimit:10;}
	.st12{fill-rule:evenodd;clip-rule:evenodd;fill:url(#SVGID_1_);}
	.st13{fill:url(#SVGID_2_);}
	.st14{fill-rule:evenodd;clip-rule:evenodd;fill:url(#SVGID_3_);}
	.st15{fill:url(#SVGID_4_);}
	.st16{fill:#D6D6D6;}
	.st17{fill-rule:evenodd;clip-rule:evenodd;fill:#D6D6D6;}
	.st18{font-family:'Roboto-Bold';}
	.st19{font-size:10.2112px;}
	.st20{font-family:'Roboto-Light';}
	.st21{font-size:27.8361px;}
	.st22{font-family:'Roboto-Regular';}
	.st23{font-size:26px;}
	.st24{font-size:22px;}
	.st25{fill:#414042;}
	.st26{fill:#D2D2D2;}
	.st27{fill:#414142;}
	.st28{fill:#FFFEFE;}
	.st29{fill:none;stroke:#ED1C24;stroke-width:2;stroke-miterlimit:10;}
</style>
<g>
	
		<linearGradient id="SVGID_1_" gradientUnits="userSpaceOnUse" x1="1405.0884" y1="-2867.9568" x2="1611.8794" y2="-3395.127" gradientTransform="matrix(1 0 0 1 -1234.1704 3294.0891)">
		<stop  offset="0" style="stop-color:#070707"/>
		<stop  offset="1" style="stop-color:#404040"/>
	</linearGradient>
	<path class="st12" d="M543.4,317.7c0,11.5-9.3,20.8-20.8,20.8H20.8C9.3,338.5,0,329.2,0,317.7L0,20.8C0,9.3,9.3,0,20.8,0h501.8
		c11.5,0,20.8,9.3,20.8,20.8L543.4,317.7z"/>
	
		<linearGradient id="SVGID_2_" gradientUnits="userSpaceOnUse" x1="1773.436" y1="-3131.7605" x2="956.6894" y2="-3104.5349" gradientTransform="matrix(1 0 0 1 -1234.1704 3294.0891)">
		<stop  offset="0" style="stop-color:#000000"/>
		<stop  offset="0.258" style="stop-color:#020202"/>
		<stop  offset="0.38" style="stop-color:#0A0A0A"/>
		<stop  offset="0.4735" style="stop-color:#171717"/>
		<stop  offset="0.5526" style="stop-color:#292929"/>
		<stop  offset="0.6224" style="stop-color:#414141"/>
		<stop  offset="0.6858" style="stop-color:#5E5E5E"/>
		<stop  offset="0.7443" style="stop-color:#818181"/>
		<stop  offset="0.799" style="stop-color:#AAAAAA"/>
		<stop  offset="0.8486" style="stop-color:#D7D7D7"/>
		<stop  offset="0.8871" style="stop-color:#FFFFFF"/>
	</linearGradient>
	<path class="st13" d="M522.6,0H140.5l201.1,338.5h180.9c11.5,0,20.8-9.3,20.8-20.8l0-296.9C543.4,9.3,534.1,0,522.6,0z"/>
</g>
<g>
	
		<linearGradient id="SVGID_3_" gradientUnits="userSpaceOnUse" x1="1322.27" y1="-3220.6091" x2="1322.27" y2="-3076.1191" gradientTransform="matrix(1 0 0 1 -1234.1704 3294.0891)">
		<stop  offset="0" style="stop-color:#FFCA3F"/>
		<stop  offset="9.693880e-02" style="stop-color:#CA7C22"/>
		<stop  offset="0.1888" style="stop-color:#FDDB7A"/>
		<stop  offset="0.4201" style="stop-color:#FFAD45"/>
		<stop  offset="0.5538" style="stop-color:#A95F0D"/>
		<stop  offset="0.6562" style="stop-color:#FFAD45"/>
		<stop  offset="0.7903" style="stop-color:#FFFF9B"/>
		<stop  offset="0.868" style="stop-color:#FFED7C"/>
		<stop  offset="1" style="stop-color:#FFCA3F"/>
	</linearGradient>
	<path class="st14" d="M124.2,135.8c0,5.7-4.6,10.3-10.3,10.3H62.3c-5.7,0-10.3-4.6-10.3-10.3V99.2c0-5.7,4.6-10.3,10.3-10.3h51.6
		c5.7,0,10.3,4.6,10.3,10.3V135.8z"/>
	
		<linearGradient id="SVGID_4_" gradientUnits="userSpaceOnUse" x1="1322.27" y1="-3255.6306" x2="1322.27" y2="-3074.7183" gradientTransform="matrix(1 0 0 1 -1234.1704 3294.0891)">
		<stop  offset="0" style="stop-color:#FFCA3F"/>
		<stop  offset="9.693880e-02" style="stop-color:#CA7C22"/>
		<stop  offset="0.1888" style="stop-color:#FDDB7A"/>
		<stop  offset="0.4201" style="stop-color:#FFAD45"/>
		<stop  offset="0.5538" style="stop-color:#A95F0D"/>
		<stop  offset="0.6562" style="stop-color:#FFAD45"/>
		<stop  offset="0.7903" style="stop-color:#FFFF9B"/>
		<stop  offset="0.868" style="stop-color:#FFED7C"/>
		<stop  offset="1" style="stop-color:#FFCA3F"/>
	</linearGradient>
	<path class="st15" d="M124.2,106.9v-1.3H111l0-16.7h-1.3l0,16.7l-10.7,0c-1.4-4.5-5.4-7.8-10.2-8.2v-8.5h-1.3v8.4
		c-5.2,0.1-9.6,3.6-11.1,8.3l-9.7,0V88.9h-1.3v16.7l-13.3,0v1.3h13.3l0,18.7H52v1.3h13.3v19.2h1.3l0-19.2h9.5
		c1.2,5.2,5.8,9.1,11.4,9.2l0,9.9h1.3l0-10c5.1-0.5,9.3-4.2,10.5-9.1h10.5l0,19.2h1.3l0-19.2h13.2v-1.3h-7.9v-18.7H124.2z
		 M75.9,125.7h-9.3v-18.7H76c-0.1,0.7-0.2,1.5-0.2,2.2c0,2.8,1,5.4,2.8,7.6c-1.8,2.2-2.8,4.8-2.8,7.6
		C75.8,124.8,75.8,125.2,75.9,125.7z M87.6,134.9c-5.8,0-10.6-4.7-10.6-10.6c0-2.6,1-5.2,2.8-7.2l0.4-0.4l-0.4-0.4
		c-1.8-2-2.8-4.5-2.8-7.2c0-5.8,4.7-10.6,10.6-10.6c5.8,0,10.6,4.7,10.6,10.6c0,2.6-1,5.2-2.8,7.2l-0.4,0.4l0.4,0.4
		c1.8,2,2.8,4.5,2.8,7.2C98.2,130.2,93.5,134.9,87.6,134.9z M115,125.7H99.4c0-0.4,0.1-0.9,0.1-1.3c0-2.8-1-5.4-2.8-7.6
		c1.8-2.2,2.8-4.8,2.8-7.6c0-0.8-0.1-1.5-0.2-2.2H115V125.7z"/>
</g>
<g>
	<path class="st16" d="M55,185.9l-1.7-1.8l5.1-5.5h4.2v25.2l-2.8,0v-22.3c0-0.5,0-0.8,0.1-0.9l-0.1-0.1L55,185.9z"/>
	<path class="st16" d="M68,203.8l0-3.8c0-0.4,0-0.7,0.1-0.8c0.1-0.1,0.3-0.3,0.6-0.6l12-10.9c0.3-0.3,0.5-0.5,0.6-0.7
		c0.1-0.2,0.1-0.6,0.1-1.1v-3.2c0-0.4,0-0.6-0.1-0.7c0-0.1-0.2-0.2-0.4-0.4c-0.2-0.2-0.4-0.3-0.5-0.3c-0.1,0-0.4-0.1-0.8-0.1h-6.4
		c-0.4,0-0.7,0-0.8,0.1c-0.1,0-0.3,0.1-0.5,0.3c-0.2,0.2-0.3,0.3-0.4,0.4c0,0.1-0.1,0.3-0.1,0.7v0.7l-3,0v-1.4
		c0-0.7,0.3-1.3,0.9-1.8l0.9-0.7c0.6-0.5,1.2-0.7,1.7-0.7h9.1c0.6,0,1.2,0.2,1.7,0.7l0.9,0.7c0.6,0.5,0.9,1.1,0.9,1.8v5.1
		c0,0.5,0,0.8-0.1,1.1c-0.1,0.2-0.3,0.5-0.6,0.7l-11.9,10.8c-0.3,0.3-0.5,0.6-0.6,0.7c-0.1,0.2-0.1,0.5-0.1,0.9v0.1h13.3v2.5H68z"/>
	<path class="st16" d="M104.3,191.1l1.4,1.2c0.4,0.3,0.6,0.5,0.6,0.6c0.1,0.1,0.1,0.5,0.1,1.1v6.6c0,0.5,0,0.8-0.1,1
		c-0.1,0.2-0.3,0.4-0.6,0.8l-0.6,0.6c-0.6,0.6-1.1,0.8-1.7,0.8H93.2c-0.6,0-1.2-0.2-1.7-0.7l-0.9-0.7c-0.6-0.5-0.9-1.1-0.9-1.8v-1.4
		h3v0.7c0,0.4,0,0.6,0.1,0.7c0,0.1,0.2,0.2,0.4,0.4c0.2,0.2,0.4,0.3,0.5,0.3c0.1,0,0.4,0.1,0.8,0.1h7.1c0.4,0,0.7,0,0.8-0.1
		c0.1,0,0.3-0.1,0.5-0.3c0.2-0.2,0.3-0.3,0.4-0.4c0-0.1,0.1-0.3,0.1-0.7v-5.4c0-0.5-0.2-1-0.7-1.4l-0.5-0.5
		c-0.4-0.3-0.6-0.5-0.8-0.5c-0.1,0-0.4-0.1-0.9-0.1h-5.8l0-2.3h5.3c0.5,0,0.8,0,0.9-0.1c0.1,0,0.4-0.2,0.8-0.5l0.5-0.4
		c0.4-0.3,0.6-0.5,0.6-0.6c0.1-0.1,0.1-0.4,0.1-0.9v-4.5c0-0.4,0-0.6-0.1-0.7c0-0.1-0.2-0.2-0.4-0.4c-0.2-0.2-0.4-0.3-0.5-0.3
		c-0.1,0-0.4-0.1-0.8-0.1h-5.9c-0.5,0-0.7,0-0.9,0.1c-0.1,0-0.3,0.1-0.5,0.3c-0.2,0.2-0.3,0.3-0.4,0.4c0,0.1-0.1,0.3-0.1,0.7l0,0.7
		h-3v-1.4c0-0.7,0.3-1.3,0.9-1.8l0.9-0.7c0.6-0.5,1.2-0.7,1.7-0.7h8.6c0.6,0,1.2,0.2,1.7,0.7l0.9,0.7c0.6,0.5,0.9,1.1,0.9,1.8v5.9
		c0,0.4,0,0.7-0.1,0.8c-0.1,0.1-0.3,0.3-0.6,0.5l-1,0.9c-0.4,0.3-0.7,0.5-1,0.5l0,0.2C103.6,190.6,104,190.7,104.3,191.1z"/>
	<path class="st16" d="M124.3,188.3h3v7.2h3.5v2.5h-3.5v5.8l-3,0V198h-12.8v-3l12.3-16.5h3.4l-12,16.1c-0.2,0.4-0.4,0.6-0.6,0.7v0.1
		h9.7L124.3,188.3z"/>
	<path class="st16" d="M168.9,187.2h8.1c0.6,0,1.2,0.2,1.7,0.7l0.9,0.7c0.6,0.5,0.9,1.1,0.9,1.8l0,10.1c0,0.7-0.3,1.3-0.9,1.8
		l-0.9,0.7c-0.6,0.5-1.2,0.7-1.7,0.7h-10.8c-0.6,0-1.2-0.2-1.7-0.7l-0.9-0.7c-0.6-0.5-0.9-1.1-0.9-1.8l0-1.4h3v0.7
		c0,0.4,0,0.6,0.1,0.7c0,0.1,0.2,0.2,0.4,0.4c0.2,0.2,0.4,0.3,0.5,0.3c0.1,0,0.4,0.1,0.8,0.1h8.1c0.4,0,0.7,0,0.8-0.1
		c0.1,0,0.3-0.1,0.5-0.3c0.2-0.2,0.3-0.3,0.4-0.4c0-0.1,0.1-0.3,0.1-0.7l0-8.6c0-0.4,0-0.6-0.1-0.7c0-0.1-0.2-0.2-0.4-0.4
		c-0.2-0.2-0.4-0.3-0.5-0.3c-0.1,0-0.4-0.1-0.8-0.1h-7c-0.6,0-1.2,0.2-1.7,0.7c-0.6,0.5-0.9,1-0.9,1.4h-3l0-13.3h16.9v2.5l-13.9,0
		l0,7.9h0.1c0-0.3,0.3-0.6,0.8-1C167.9,187.5,168.5,187.2,168.9,187.2z"/>
	<path class="st16" d="M204.9,183.3l-3,0v-0.7c0-0.4,0-0.6-0.1-0.7c0-0.1-0.2-0.2-0.4-0.4c-0.2-0.2-0.4-0.3-0.5-0.3
		c-0.1,0-0.4-0.1-0.8-0.1h-8.7c-0.4,0-0.7,0-0.8,0.1c-0.1,0-0.3,0.1-0.5,0.3c-0.2,0.2-0.3,0.3-0.4,0.4c0,0.1-0.1,0.3-0.1,0.7v7.2
		h0.1l0.2-0.2c0.8-0.8,1.5-1.3,2-1.3h9.8c0.6,0,1.2,0.2,1.7,0.7l0.9,0.7c0.6,0.5,0.9,1.1,0.9,1.8l0,9c0,0.7-0.3,1.3-0.9,1.8
		l-0.9,0.7c-0.6,0.5-1.2,0.7-1.7,0.7h-11.7c-0.6,0-1.2-0.2-1.7-0.7l-0.9-0.7c-0.6-0.5-0.9-1.1-0.9-1.8v-18.7c0-0.7,0.3-1.3,0.9-1.8
		l0.9-0.7c0.6-0.5,1.2-0.7,1.7-0.7h11.3c0.6,0,1.2,0.2,1.7,0.7l0.9,0.7c0.6,0.5,0.9,1.1,0.9,1.8L204.9,183.3z M202.2,199.8v-7.5
		c0-0.4,0-0.6-0.1-0.7c0-0.1-0.2-0.2-0.4-0.4c-0.2-0.2-0.4-0.3-0.5-0.3c-0.1,0-0.4-0.1-0.8-0.1h-8.1c-0.5,0-0.8,0-0.9,0.1
		c-0.2,0-0.5,0.2-0.9,0.5c-0.6,0.3-0.8,0.6-0.9,0.9v7.5c0,0.4,0,0.6,0.1,0.7c0,0.1,0.2,0.2,0.4,0.4c0.2,0.2,0.4,0.3,0.5,0.3
		c0.1,0,0.4,0.1,0.8,0.1h9c0.4,0,0.7,0,0.8-0.1c0.1,0,0.3-0.1,0.5-0.3c0.2-0.2,0.3-0.3,0.4-0.4C202.2,200.4,202.2,200.2,202.2,199.8
		z"/>
	<path class="st16" d="M212.4,203.8l11.9-22c0.2-0.4,0.4-0.6,0.6-0.7h-15.6v-2.5h18.5v2.7l-12,22.5L212.4,203.8z"/>
	<path class="st16" d="M233.6,192.7l1.7-1.4c0.4-0.3,0.7-0.5,1-0.5v-0.2c-0.3,0-0.6-0.2-1-0.5l-1.2-0.9c-0.4-0.3-0.6-0.7-0.6-1.2
		l0-6.2c0-0.7,0.3-1.3,0.9-1.8l0.9-0.7c0.6-0.5,1.2-0.7,1.7-0.7h11c0.6,0,1.2,0.2,1.7,0.7l0.9,0.7c0.6,0.5,0.9,1.1,0.9,1.8v6.2
		c0,0.5-0.2,0.9-0.6,1.2l-1.2,0.9c-0.4,0.3-0.7,0.5-1,0.5v0.2c0.3,0,0.6,0.2,1,0.5l1.7,1.4c0.3,0.3,0.5,0.7,0.5,1.4v6.5
		c0,0.7-0.3,1.3-0.9,1.8c-0.2,0.1-0.5,0.4-0.9,0.7c-0.6,0.5-1.2,0.7-1.7,0.7h-11.9c-0.6,0-1.2-0.2-1.7-0.7c-0.4-0.3-0.7-0.6-0.9-0.7
		c-0.6-0.5-0.9-1.1-0.9-1.8l0-6.5C233.1,193.4,233.3,192.9,233.6,192.7z M246.2,192.3h-7.3c-0.4,0-0.6,0-0.7,0.1
		c-0.1,0-0.3,0.2-0.6,0.4l-0.8,0.6c-0.3,0.2-0.5,0.4-0.5,0.5c0,0.1-0.1,0.4-0.1,0.8v5.1c0,0.4,0,0.6,0.1,0.7c0,0.1,0.2,0.2,0.4,0.4
		c0.2,0.2,0.4,0.3,0.5,0.3c0.1,0,0.4,0.1,0.8,0.1h9.2c0.4,0,0.7,0,0.8-0.1c0.1,0,0.3-0.1,0.5-0.3c0.2-0.2,0.3-0.3,0.4-0.4
		c0-0.1,0.1-0.3,0.1-0.7l0-5.1c0-0.4,0-0.6-0.1-0.8c0-0.1-0.2-0.3-0.5-0.5l-0.8-0.6c-0.3-0.2-0.5-0.4-0.6-0.4
		C246.8,192.3,246.5,192.3,246.2,192.3z M246.7,181.1l-8.4,0c-0.4,0-0.7,0-0.8,0.1c-0.1,0-0.3,0.1-0.5,0.3c-0.2,0.2-0.3,0.3-0.4,0.4
		c0,0.1-0.1,0.3-0.1,0.7v4.7c0,0.4,0,0.7,0.1,0.8c0,0.1,0.2,0.3,0.5,0.5l0.9,0.8c0.2,0.2,0.4,0.3,0.6,0.3c0.1,0,0.4,0.1,0.8,0.1h6.1
		c0.4,0,0.7,0,0.8-0.1c0.1,0,0.3-0.1,0.6-0.3l0.9-0.8c0.3-0.2,0.5-0.4,0.5-0.5c0-0.1,0.1-0.4,0.1-0.8l0-4.7c0-0.4,0-0.6-0.1-0.7
		c0-0.1-0.2-0.2-0.4-0.4c-0.2-0.2-0.4-0.3-0.5-0.3C247.4,181.1,247.1,181.1,246.7,181.1z"/>
	<path class="st16" d="M285.4,199.1h3v0.7c0,0.4,0,0.6,0.1,0.7c0,0.1,0.2,0.2,0.4,0.4c0.2,0.2,0.4,0.3,0.5,0.3
		c0.1,0,0.4,0.1,0.8,0.1h8.6c0.4,0,0.7,0,0.8-0.1c0.1,0,0.3-0.1,0.5-0.3c0.2-0.2,0.3-0.3,0.4-0.4c0-0.1,0.1-0.3,0.1-0.7l0-7.2h-0.1
		l-0.2,0.2c-0.8,0.8-1.5,1.3-2,1.3h-9.8c-0.6,0-1.2-0.2-1.7-0.7l-0.9-0.7c-0.6-0.5-0.9-1.1-0.9-1.8l0-9c0-0.7,0.3-1.3,0.9-1.8
		l0.9-0.7c0.6-0.5,1.2-0.7,1.7-0.7h11.7c0.6,0,1.2,0.2,1.7,0.7l0.9,0.7c0.6,0.5,0.9,1.1,0.9,1.8v18.7c0,0.7-0.3,1.3-0.9,1.8
		l-0.9,0.7c-0.6,0.5-1.1,0.7-1.7,0.7l-11.3,0c-0.6,0-1.2-0.2-1.7-0.7l-0.9-0.7c-0.6-0.5-0.9-1.1-0.9-1.8V199.1z M288.1,182.6v7.5
		c0,0.4,0,0.6,0.1,0.7c0,0.1,0.2,0.2,0.4,0.4c0.2,0.2,0.4,0.3,0.5,0.3c0.1,0,0.4,0.1,0.8,0.1h8.1c0.5,0,0.8,0,0.9-0.1
		c0.2,0,0.5-0.2,0.9-0.5c0.6-0.3,0.8-0.6,0.9-0.9l0-7.5c0-0.4,0-0.6-0.1-0.7c0-0.1-0.2-0.2-0.4-0.4c-0.2-0.2-0.4-0.3-0.5-0.3
		c-0.1,0-0.4-0.1-0.8-0.1l-9,0c-0.4,0-0.7,0-0.8,0.1c-0.1,0-0.3,0.1-0.5,0.3c-0.2,0.2-0.3,0.3-0.4,0.4
		C288.1,182,288.1,182.2,288.1,182.6z"/>
	<path class="st16" d="M313.7,178.6h14.3c0.6,0,1.2,0.2,1.7,0.7l0.9,0.7c0.6,0.5,0.9,1.1,0.9,1.8l0,18.7c0,0.7-0.3,1.3-0.9,1.8
		l-0.9,0.7c-0.6,0.5-1.2,0.7-1.7,0.7l-14.3,0c-0.6,0-1.2-0.2-1.7-0.7l-0.9-0.7c-0.6-0.5-0.9-1.1-0.9-1.8v-18.7
		c0-0.7,0.3-1.3,0.9-1.8l0.9-0.7C312.5,178.8,313.1,178.6,313.7,178.6z M328.4,199.8v-17.2c0-0.4,0-0.6-0.1-0.7
		c0-0.1-0.2-0.2-0.4-0.4c-0.2-0.2-0.4-0.3-0.5-0.3c-0.1,0-0.4-0.1-0.8-0.1H315c-0.4,0-0.7,0-0.8,0.1c-0.1,0-0.3,0.1-0.5,0.3
		c-0.2,0.2-0.3,0.3-0.4,0.4c0,0.1-0.1,0.3-0.1,0.7v17.2c0,0.4,0,0.6,0.1,0.7c0,0.1,0.2,0.2,0.4,0.4c0.2,0.2,0.4,0.3,0.5,0.3
		c0.1,0,0.4,0.1,0.8,0.1h11.6c0.4,0,0.7,0,0.8-0.1c0.1,0,0.3-0.1,0.5-0.3c0.2-0.2,0.3-0.3,0.4-0.4
		C328.4,200.4,328.4,200.2,328.4,199.8z"/>
	<path class="st16" d="M338.4,185.9l-1.7-1.8l5.1-5.5h4.2v25.2l-2.8,0v-22.3c0-0.5,0-0.8,0.1-0.9l-0.1-0.1L338.4,185.9z"/>
	<path class="st16" d="M351.4,203.8V200c0-0.4,0-0.7,0.1-0.8c0.1-0.1,0.3-0.3,0.6-0.6l12-10.9c0.3-0.3,0.5-0.5,0.6-0.7
		c0.1-0.2,0.1-0.6,0.1-1.1v-3.2c0-0.4,0-0.6-0.1-0.7c0-0.1-0.2-0.2-0.4-0.4c-0.2-0.2-0.4-0.3-0.5-0.3c-0.1,0-0.4-0.1-0.8-0.1h-6.4
		c-0.4,0-0.7,0-0.8,0.1c-0.1,0-0.3,0.1-0.5,0.3c-0.2,0.2-0.3,0.3-0.4,0.4c0,0.1-0.1,0.3-0.1,0.7v0.7h-3v-1.4c0-0.7,0.3-1.3,0.9-1.8
		l0.9-0.7c0.6-0.5,1.1-0.7,1.7-0.7h9.1c0.6,0,1.2,0.2,1.7,0.7l0.9,0.7c0.6,0.5,0.9,1.1,0.9,1.8v5.1c0,0.5,0,0.8-0.1,1.1
		c-0.1,0.2-0.3,0.5-0.6,0.7l-11.9,10.8c-0.3,0.3-0.5,0.5-0.6,0.7c-0.1,0.2-0.1,0.5-0.1,0.9v0.1h13.3v2.5H351.4z"/>
	<path class="st16" d="M414.7,191.1l1.4,1.2c0.4,0.3,0.6,0.5,0.6,0.6c0.1,0.1,0.1,0.5,0.1,1.1l0,6.6c0,0.5,0,0.8-0.1,1
		c-0.1,0.2-0.3,0.4-0.6,0.8l-0.6,0.6c-0.6,0.6-1.1,0.8-1.7,0.8h-10.2c-0.6,0-1.2-0.2-1.7-0.7l-0.9-0.7c-0.6-0.5-0.9-1.1-0.9-1.8
		v-1.4h3v0.7c0,0.4,0,0.6,0.1,0.7c0,0.1,0.2,0.2,0.4,0.4c0.2,0.2,0.4,0.3,0.5,0.3c0.1,0,0.4,0.1,0.8,0.1h7.1c0.4,0,0.7,0,0.8-0.1
		c0.1,0,0.3-0.1,0.5-0.3c0.2-0.2,0.3-0.3,0.4-0.4c0-0.1,0.1-0.3,0.1-0.7l0-5.4c0-0.5-0.2-1-0.6-1.4l-0.5-0.5
		c-0.4-0.3-0.6-0.5-0.8-0.5c-0.1,0-0.4-0.1-0.9-0.1h-5.8v-2.3h5.3c0.5,0,0.8,0,0.9-0.1c0.1,0,0.4-0.2,0.8-0.5l0.5-0.4
		c0.4-0.3,0.6-0.5,0.6-0.6c0.1-0.1,0.1-0.4,0.1-0.9l0-4.5c0-0.4,0-0.6-0.1-0.7c0-0.1-0.2-0.2-0.4-0.4c-0.2-0.2-0.4-0.3-0.5-0.3
		c-0.1,0-0.4-0.1-0.8-0.1l-5.9,0c-0.5,0-0.7,0-0.9,0.1c-0.1,0-0.3,0.1-0.5,0.3c-0.2,0.2-0.3,0.3-0.4,0.4c0,0.1-0.1,0.3-0.1,0.7v0.7
		h-3v-1.4c0-0.7,0.3-1.3,0.9-1.8l0.9-0.7c0.6-0.5,1.2-0.7,1.7-0.7h8.6c0.6,0,1.2,0.2,1.7,0.7l0.9,0.7c0.6,0.5,0.9,1.1,0.9,1.8v5.9
		c0,0.4,0,0.7-0.1,0.8c-0.1,0.1-0.2,0.3-0.6,0.5l-1,0.9c-0.4,0.3-0.7,0.5-1,0.5l0,0.2C414,190.6,414.4,190.7,414.7,191.1z"/>
	<path class="st16" d="M434.7,188.3h3v7.2h3.5l0,2.5l-3.5,0l0,5.8h-3V198h-12.8v-3l12.3-16.5h3.4l-12,16.1c-0.2,0.4-0.4,0.6-0.6,0.7
		v0.1h9.7L434.7,188.3z"/>
	<path class="st16" d="M452.3,187.2h8.2c0.6,0,1.1,0.2,1.7,0.7l0.9,0.7c0.6,0.5,0.9,1.1,0.9,1.8l0,10.1c0,0.7-0.3,1.3-0.9,1.8
		l-0.9,0.7c-0.6,0.5-1.2,0.7-1.7,0.7l-10.8,0c-0.6,0-1.2-0.2-1.7-0.7l-0.9-0.7c-0.6-0.5-0.9-1.1-0.9-1.8v-1.4h3v0.7
		c0,0.4,0,0.6,0.1,0.7c0,0.1,0.2,0.2,0.4,0.4c0.2,0.2,0.4,0.3,0.5,0.3c0.1,0,0.4,0.1,0.8,0.1h8.1c0.4,0,0.7,0,0.8-0.1
		c0.1,0,0.3-0.1,0.5-0.3c0.2-0.2,0.3-0.3,0.4-0.4c0-0.1,0.1-0.3,0.1-0.7v-8.6c0-0.4,0-0.6-0.1-0.7c0-0.1-0.2-0.2-0.4-0.4
		c-0.2-0.2-0.4-0.3-0.5-0.3c-0.1,0-0.4-0.1-0.8-0.1h-7c-0.6,0-1.2,0.2-1.7,0.7c-0.6,0.5-0.9,1-0.9,1.4h-3l0-13.3h16.9v2.5l-13.9,0
		l0,7.9h0.1c0-0.3,0.3-0.6,0.8-1C451.3,187.5,451.9,187.2,452.3,187.2z"/>
	<path class="st16" d="M488.3,183.3h-3v-0.7c0-0.4,0-0.6-0.1-0.7c0-0.1-0.2-0.2-0.4-0.4c-0.2-0.2-0.4-0.3-0.5-0.3
		c-0.1,0-0.4-0.1-0.8-0.1h-8.6c-0.4,0-0.7,0-0.8,0.1c-0.1,0-0.3,0.1-0.5,0.3c-0.2,0.2-0.3,0.3-0.4,0.4c0,0.1-0.1,0.3-0.1,0.7v7.2
		h0.1l0.2-0.2c0.8-0.8,1.5-1.3,2-1.3h9.8c0.6,0,1.2,0.2,1.7,0.7l0.9,0.7c0.6,0.5,0.9,1.1,0.9,1.8v9c0,0.7-0.3,1.3-0.9,1.8l-0.9,0.7
		c-0.6,0.5-1.1,0.7-1.7,0.7l-11.7,0c-0.6,0-1.2-0.2-1.7-0.7l-0.9-0.7c-0.6-0.5-0.9-1.1-0.9-1.8l0-18.7c0-0.7,0.3-1.3,0.9-1.8
		l0.9-0.7c0.6-0.5,1.2-0.7,1.7-0.7h11.3c0.6,0,1.2,0.2,1.7,0.7l0.9,0.7c0.6,0.5,0.9,1.1,0.9,1.8V183.3z M485.6,199.8v-7.5
		c0-0.4,0-0.6-0.1-0.7c0-0.1-0.2-0.2-0.4-0.4c-0.2-0.2-0.4-0.3-0.5-0.3c-0.1,0-0.4-0.1-0.8-0.1h-8.1c-0.5,0-0.8,0-0.9,0.1
		c-0.2,0-0.5,0.2-0.9,0.5c-0.6,0.3-0.8,0.6-0.9,0.9v7.5c0,0.4,0,0.6,0.1,0.7c0,0.1,0.2,0.2,0.4,0.4c0.2,0.2,0.4,0.3,0.5,0.3
		c0.1,0,0.4,0.1,0.8,0.1h9c0.4,0,0.7,0,0.8-0.1c0.1,0,0.3-0.1,0.5-0.3c0.2-0.2,0.3-0.3,0.4-0.4C485.6,200.4,485.6,200.2,485.6,199.8
		z"/>
</g>
<g>
	<polygon class="st17" points="397.4,274 397.4,282.9 404.2,278.4 	"/>
	<text transform="matrix(1 0 0 1 341.9251 275.1758)"><tspan x="0" y="0" class="st16 st18 st19">DATA DE </tspan><tspan x="0" y="13.6" class="st16 st18 st19">VALIDADE</tspan></text>
	<text transform="matrix(1 0 0 1 410.557 288.0894)" class="st16 st20 st21">12/18</text>
</g>
<text transform="matrix(1 0 0 1 51.9652 286.9761)" class="st16 st22 st23">Marcos Oliveira</text>
<text transform="matrix(1 0 0 1 51.9647 58.0913)" class="st16 st18 st24">BEER PREMIUM CLUB</text>
</svg>
