<?xml version="1.0" encoding="utf-8"?>
<!-- Generator: Adobe Illustrator 21.0.0, SVG Export Plug-In . SVG Version: 6.00 Build 0)  -->
<svg version="1.1" id="Camada_1" xmlns="http://www.w3.org/2000/svg" xmlns:xlink="http://www.w3.org/1999/xlink" x="0px" y="0px"
	 viewBox="0 0 48 48" style="enable-background:new 0 0 48 48;" xml:space="preserve">
<style type="text/css">
	.st0{fill:none;}
	.st1{fill:#282828;}
	.st2{fill:#FFCB05;}
	.st3{fill:#757575;}
	.st4{fill:#DDE9E9;}
	.st5{fill:#ACC9CB;}
	.st6{fill:#FFFFFF;}
	.st7{fill:#FDBD10;}
	.st8{fill:#F7991C;}
	.st9{opacity:0.4;fill:#FFFFFF;}
	.st10{fill:#F1F2F2;}
	.st11{fill:none;stroke:#FDBD10;stroke-width:3;stroke-linecap:round;stroke-linejoin:round;stroke-miterlimit:10;}
	.st12{fill-rule:evenodd;clip-rule:evenodd;fill:url(#SVGID_1_);}
	.st13{fill:url(#SVGID_2_);}
	.st14{fill-rule:evenodd;clip-rule:evenodd;fill:url(#SVGID_3_);}
	.st15{fill:url(#SVGID_4_);}
	.st16{fill:#D6D6D6;}
	.st17{fill-rule:evenodd;clip-rule:evenodd;fill:#D6D6D6;}
	.st18{fill:#414042;}
	.st19{fill:#D2D2D2;}
	.st20{fill:#414142;}
	.st21{fill:#FFFEFE;}
	.st22{fill:none;stroke:#ED1C24;stroke-width:2;stroke-miterlimit:10;}
</style>
<g>
	<path class="st0" d="M0,0h48v48H0V0z"/>
	<path class="st2" d="M13.3,21.6c2.9,5.7,7.5,10.3,13.2,13.2l4.4-4.4c0.5-0.6,1.3-0.7,2-0.5c2.2,0.7,4.6,1.1,7.1,1.1
		c1.1,0,2,0.9,2,2v7c0,1.1-0.9,2-2,2C21.2,42,6,26.8,6,8c0-1.1,0.9-2,2-2h7c1.1,0,2,0.9,2,2c0,2.5,0.4,4.9,1.1,7.1
		c0.2,0.7,0.1,1.5-0.5,2L13.3,21.6z"/>
</g>
</svg>
