<?xml version="1.0" encoding="utf-8"?>
<!-- Generator: Adobe Illustrator 21.0.0, SVG Export Plug-In . SVG Version: 6.00 Build 0)  -->
<svg version="1.1" id="Camada_1" xmlns="http://www.w3.org/2000/svg" xmlns:xlink="http://www.w3.org/1999/xlink" x="0px" y="0px"
	 viewBox="0 0 48 48" style="enable-background:new 0 0 48 48;" xml:space="preserve">
<style type="text/css">
	.st0{fill:none;}
	.st1{fill:#282828;}
	.st2{fill:#FFCB05;}
	.st3{fill:#757575;}
	.st4{fill:#DDE9E9;}
	.st5{fill:#ACC9CB;}
	.st6{fill:#FFFFFF;}
	.st7{fill:#FDBD10;}
	.st8{fill:#F7991C;}
	.st9{opacity:0.4;fill:#FFFFFF;}
	.st10{fill:#F1F2F2;}
	.st11{fill:none;stroke:#FDBD10;stroke-width:3;stroke-linecap:round;stroke-linejoin:round;stroke-miterlimit:10;}
	.st12{fill-rule:evenodd;clip-rule:evenodd;fill:url(#SVGID_1_);}
	.st13{fill:url(#SVGID_2_);}
	.st14{fill-rule:evenodd;clip-rule:evenodd;fill:url(#SVGID_3_);}
	.st15{fill:url(#SVGID_4_);}
	.st16{fill:#D6D6D6;}
	.st17{fill-rule:evenodd;clip-rule:evenodd;fill:#D6D6D6;}
	.st18{fill:#414042;}
	.st19{fill:#D2D2D2;}
	.st20{fill:#414142;}
	.st21{fill:#FFFEFE;}
	.st22{fill:none;stroke:#ED1C24;stroke-width:2;stroke-miterlimit:10;}
</style>
<g>
	<path class="st0" d="M0,0h48v48H0V0z"/>
	<path class="st2" d="M38.5,32.8c-1.3-1.3-3.1-1.5-4.7-0.8l-3.5-3.5c0,0,0-0.1,0.1-0.1c0.3-0.4,0.5-0.9,0.7-1.3c0,0,0,0,0,0
		c0.2-0.5,0.4-1,0.5-1.5c0.2-0.9,0.2-1.9,0-2.8c-0.2-1.1-0.6-2.1-1.2-3l3.5-3.5c1.5,0.7,3.4,0.5,4.7-0.8c1.6-1.6,1.6-4.2,0-5.8
		c-1.6-1.6-4.2-1.6-5.8,0c-1.3,1.3-1.5,3.1-0.8,4.7l-3.5,3.5c0,0-0.1,0-0.1,0c-0.9-0.6-1.9-1-2.9-1.2c-0.9-0.2-1.9-0.2-2.8,0
		c-1.1,0.2-2.1,0.6-3,1.2l-3.5-3.5c0.7-1.5,0.5-3.4-0.8-4.7c-1.6-1.6-4.2-1.6-5.8,0c-1.6,1.6-1.6,4.2,0,5.8c1.3,1.3,3.1,1.5,4.7,0.8
		l3.5,3.5c0,0,0,0.1,0,0.1c-0.6,0.9-1,1.9-1.2,2.9c-0.2,0.9-0.2,1.9,0,2.8c0.2,1.1,0.6,2.1,1.2,3l-3.5,3.5c-1.5-0.7-3.4-0.5-4.7,0.8
		c-1.6,1.6-1.6,4.2,0,5.8c1.6,1.6,4.2,1.6,5.8,0c1.3-1.3,1.5-3.1,0.8-4.7l3.5-3.5c0,0,0.1,0,0.1,0c0.9,0.6,1.9,1,2.9,1.2
		c0.9,0.2,1.9,0.2,2.8,0c1.1-0.2,2.1-0.6,3-1.2l3.5,3.5l0,0c-0.7,1.5-0.5,3.4,0.8,4.7c1.6,1.6,4.2,1.6,5.8,0
		C40.2,37,40.1,34.4,38.5,32.8z M21.4,26.6c-0.7-0.7-1.1-1.6-1.1-2.6c0-1,0.4-1.9,1.1-2.6c0.7-0.7,1.6-1.1,2.6-1.1
		c1,0,1.9,0.4,2.6,1.1c0.7,0.7,1.1,1.6,1.1,2.6c0,1-0.4,1.9-1.1,2.6c-0.7,0.7-1.6,1.1-2.6,1.1C23,27.7,22.1,27.3,21.4,26.6z"/>
</g>
</svg>
