<?xml version="1.0" encoding="utf-8"?>
<!-- Generator: Adobe Illustrator 21.0.0, SVG Export Plug-In . SVG Version: 6.00 Build 0)  -->
<svg version="1.1" id="Camada_1" xmlns="http://www.w3.org/2000/svg" xmlns:xlink="http://www.w3.org/1999/xlink" x="0px" y="0px"
	 viewBox="0 0 175 156.1" style="enable-background:new 0 0 175 156.1;" xml:space="preserve">
<style type="text/css">
	.st0{fill:none;}
	.st1{fill:#282828;}
	.st2{fill:#FFCB05;}
	.st3{fill:#757575;}
	.st4{fill:#DDE9E9;}
	.st5{fill:#ACC9CB;}
	.st6{fill:#FFFFFF;}
	.st7{fill:#FDBD10;}
	.st8{fill:#F7991C;}
	.st9{opacity:0.4;fill:#FFFFFF;}
	.st10{fill:#F1F2F2;}
	.st11{fill:none;stroke:#FDBD10;stroke-width:3;stroke-linecap:round;stroke-linejoin:round;stroke-miterlimit:10;}
	.st12{fill-rule:evenodd;clip-rule:evenodd;fill:url(#SVGID_1_);}
	.st13{fill:url(#SVGID_2_);}
	.st14{fill-rule:evenodd;clip-rule:evenodd;fill:url(#SVGID_3_);}
	.st15{fill:url(#SVGID_4_);}
	.st16{fill:#D6D6D6;}
	.st17{fill-rule:evenodd;clip-rule:evenodd;fill:#D6D6D6;}
	.st18{fill:#414042;}
	.st19{fill:#D2D2D2;}
	.st20{fill:#414142;}
	.st21{fill:#FFFEFE;}
	.st22{fill:none;stroke:#ED1C24;stroke-width:2;stroke-miterlimit:10;}
</style>
<g>
	<g>
		<g>
			<path class="st0" d="M111.7,94.6c0,0,2.4,2.6,4.9,1.1c2.6-1.5,9.8-4,8.8-16.1c-1.1-12.1-5.8-17.5-10.7-15.5
				c-1.7,0.7-2.6,1.4-3,2.1C111.7,76.3,111.7,87.9,111.7,94.6z"/>
			<path class="st4" d="M115.6,56.7c0.4-0.7,0.9-1.3,1.4-1.8c-0.9-0.1-1.7-0.1-2.4-0.1c-2.2,0-2.9-2-3-3.6c0,3.8,0,9.1,0,14.9
				c0.4-0.7,1.3-1.5,3-2.1c0.1,0,0.1,0,0.2-0.1C114.2,61.8,114.8,58.8,115.6,56.7z"/>
			<path class="st4" d="M122.3,103.1c-3.4-1.4-6.1-3.6-7-7c-2,0.2-3.6-1.5-3.6-1.5c0,2.6,0,4.5,0,5.4c0,3.7-0.1,8.2,0.7,11.7
				C111.6,107.4,115.3,106.9,122.3,103.1z"/>
			<path class="st5" d="M122.3,103.1c1.4-0.8,2.9-1.6,4.6-2.7c10.1-6.4,7.5-28.5,3.2-37c-3.5-7-9.1-8.3-13.1-8.5
				c-0.5,0.5-1,1.1-1.4,1.8c-0.9,2.1-1.4,5.1-0.8,7.3c4.9-1.7,9.4,3.7,10.5,15.6c1.1,12.1-6.2,14.6-8.8,16.1
				c-0.5,0.3-0.9,0.4-1.3,0.4C116.2,99.5,118.9,101.7,122.3,103.1z"/>
			<path class="st6" d="M107.8,54.1v-6.6H88.1h-3.9H64.6V55c2-0.5,4-1,6.1-1.5C83.6,51.1,96,57.9,107.8,54.1z"/>
			<path class="st7" d="M70.7,53.4c-2.1,0.5-4.1,1.1-6.1,1.5v36.7c8.5,4.9,16.9,8.3,26.6,6.7c6-1.5,10.8-5.3,16.6-6.4V54.1
				C96,57.9,83.6,51.1,70.7,53.4z"/>
			<path class="st8" d="M107.8,100v-7.9c-5.8,1-10.6,4.9-16.6,6.4c-9.7,1.6-18.1-1.8-26.6-6.7v8.3c0,0.4,0,0.8,0,1.2
				c0,3.8,0,8-0.9,11.6c0.2,1,0.8,1.9,2.2,2.3c3.6,1.1,18.7,3.5,28.6,1.9c9.8-1.6,14-1.8,13.9-5c-0.7-3.4-0.7-7.2-0.7-10.7
				C107.8,100.8,107.8,100.4,107.8,100z"/>
			<path class="st8" d="M86.2,123.1c11.5,0,18.5-1.7,21.6-2.6c0,0,0,0,0,0c0.6-0.6,2.1-1.6,1-2.3c-1.2-0.7-8.7,2.5-19.2,2.7
				c-10.6,0.2-21-1.2-23.6-2.3c-2.6-1.2-3.3,0.7-2,1.9c0,0,0.1,0.1,0.1,0.1C66.4,121.3,72.9,123.1,86.2,123.1L86.2,123.1z"/>
			<path class="st5" d="M111.7,100c0-0.8,0-2.7,0-5.4c0-6.8,0-18.3,0-28.5c0-5.8,0-11.1,0-14.9c0-3.5,0-5.6,0-5.6
				c0-1.1-0.9-1.9-1.9-1.9H88.1c-1.1,0-2.8,0-3.9,0H62.7c-1.1,0-1.9,0.9-1.9,1.9c0,0,0,49.2,0,54.4c0,5.1,0.2,11.8-2.1,15.2
				c-2.4,3.4-0.4,5.8-0.4,5.8c0.7,0.8,2,1.9,2.9,2.5c0,0,6,3.5,25,3.5c0,0,0,0,0.1,0c17.3,0,25-3.7,25-3.7c1-0.5,2.3-1.5,3-2.3
				c0,0,2-2.4-0.4-5.8c-0.7-1-1.1-2.2-1.4-3.5C111.6,108.2,111.7,103.7,111.7,100z M107.8,100c0,0.4,0,0.8,0,1.2
				c0,3.5,0,7.3,0.7,10.7c0,3.2-4.1,3.4-13.9,5c-9.9,1.6-25-0.8-28.6-1.9c-1.4-0.4-2-1.3-2.2-2.3c0.9-3.6,0.9-7.8,0.9-11.6
				c0-0.4,0-0.8,0-1.2V47.5h19.7h3.9h19.7V100z M64,120.5c0,0-0.1-0.1-0.1-0.1c-1.2-1.2-0.5-3,2-1.9c2.6,1.2,13,2.5,23.6,2.3
				c10.6-0.2,18.1-3.4,19.2-2.7c1.2,0.7-0.4,1.7-1,2.3c0,0,0,0,0,0c-3.1,1-10.1,2.6-21.6,2.6h-0.1C72.9,123.1,66.4,121.3,64,120.5z"
				/>
		</g>
		<path class="st9" d="M76.8,122.9c-0.9-0.5-2.2-1.6-2.9-2.4c0,0-2-2.4,0.4-5.8c2.4-3.4,2.1-10,2.1-15.1c0-5.1,0-54,0-54
			c0-1.1,0.9-1.9,1.9-1.9h-7.1c-1.1,0-1.9,0.9-1.9,1.9c0,0,0,48.9,0,54c0,5.1,0.2,11.7-2.1,15.1c-2.4,3.4-0.4,5.8-0.4,5.8
			c0.7,0.8,2,1.9,2.9,2.4c0,0,6,3.5,25,3.5c0,0,0,0,0.1,0c1.2,0,2.3,0,3.3,0C82,126,76.8,122.9,76.8,122.9z"/>
		<path class="st10" d="M104.8,39.7c0,0,1.9-3.2-2-5.4c-3.9-2.1-5.6,1.9-5.6,1.9s-5.6-6.2-10.1-6.2c-4.5,0-2.9,6.8-2.9,6.8
			S78,28.5,75,31.1c-3,2.6,0,6.6,0,6.6s-5.6-4.5-7.7-2.3c-2.1,2.1,0,4.9,0,4.9s-4.3-3-6.4-0.4c-2.1,2.6,1.8,3.7,1.8,3.7h26.2
			c-0.1,2.3,3.1,3,3.1,3c0.1,2.2,2.2,3.1,2.2,3.1s-1.6,0.1-2.4,2.1c-0.8,2,2,3.1,2,3.1c-1.4,2.3,1.6,5.1,2.8,3.1
			c1.2-2.1,0-3.7,0-3.7s2.3,0.2,2.7-1.1c0.4-1.3-0.8-2.2-0.8-2.2s1.9-0.1,3.1-1.9c1.2-1.8-0.4-4.1-0.4-4.1c0.4-0.5,0.5-0.9,0.4-1.3
			h3.3c0,0,6.1-0.7,5.7-3.1C110.1,38.2,104.8,39.7,104.8,39.7z"/>
	</g>
	<g>
		<g>
			<g>
				<path class="st11" d="M19.2,49.7c3.2,1.4,6.3,2.7,9.5,4.1"/>
				<path class="st11" d="M150,106.2c1.9,0.8,3.8,1.6,5.7,2.5"/>
			</g>
			<g>
				<path class="st11" d="M18.4,106.6c2.1-0.8,4.2-1.7,6.3-2.5"/>
				<path class="st11" d="M149.7,54.5c2.3-0.9,4.6-1.8,6.9-2.7"/>
			</g>
			<g>
				<path class="st11" d="M58,147.4c1.2-2.8,2.4-5.6,3.6-8.4"/>
				<path class="st11" d="M113.5,18.8c1.1-2.6,2.3-5.3,3.4-7.9"/>
			</g>
			<g>
				<path class="st11" d="M114.9,148.3c-0.9-2.3-1.8-4.6-2.7-6.9"/>
				<path class="st11" d="M63.7,19.1c-1.2-3-2.4-6.1-3.6-9.1"/>
			</g>
			<g>
				<line class="st11" x1="26.7" y1="18.4" x2="41.7" y2="33.4"/>
				<line class="st11" x1="133.3" y1="125" x2="148.3" y2="140"/>
			</g>
			<g>
				<line class="st11" x1="1.5" y1="79.2" x2="22.7" y2="79.2"/>
				<line class="st11" x1="152.2" y1="79.2" x2="173.5" y2="79.2"/>
			</g>
			<g>
				<line class="st11" x1="26.7" y1="140" x2="41.7" y2="125"/>
				<line class="st11" x1="133.3" y1="33.4" x2="148.3" y2="18.4"/>
			</g>
			<g>
				<line class="st11" x1="87.5" y1="154.6" x2="87.5" y2="138.4"/>
				<line class="st11" x1="87.5" y1="14.4" x2="87.5" y2="1.5"/>
			</g>
		</g>
	</g>
</g>
</svg>
