<?xml version="1.0" encoding="utf-8"?>
<!-- Generator: Adobe Illustrator 21.0.0, SVG Export Plug-In . SVG Version: 6.00 Build 0)  -->
<svg version="1.1" id="Camada_1" xmlns="http://www.w3.org/2000/svg" xmlns:xlink="http://www.w3.org/1999/xlink" x="0px" y="0px"
	 viewBox="0 0 152 166.1" style="enable-background:new 0 0 152 166.1;" xml:space="preserve">
<style type="text/css">
	.st0{fill:none;}
	.st1{fill:#282828;}
	.st2{fill:#FFCB05;}
	.st3{fill:#757575;}
	.st4{fill:#DDE9E9;}
	.st5{fill:#ACC9CB;}
	.st6{fill:#FFFFFF;}
	.st7{fill:#FDBD10;}
	.st8{fill:#F7991C;}
	.st9{opacity:0.4;fill:#FFFFFF;}
	.st10{fill:#F1F2F2;}
	.st11{fill:none;stroke:#FDBD10;stroke-width:3;stroke-linecap:round;stroke-linejoin:round;stroke-miterlimit:10;}
	.st12{fill-rule:evenodd;clip-rule:evenodd;fill:url(#SVGID_1_);}
	.st13{fill:url(#SVGID_2_);}
	.st14{fill-rule:evenodd;clip-rule:evenodd;fill:url(#SVGID_3_);}
	.st15{fill:url(#SVGID_4_);}
	.st16{fill:#D6D6D6;}
	.st17{fill-rule:evenodd;clip-rule:evenodd;fill:#D6D6D6;}
	.st18{fill:#414042;}
	.st19{fill:#D2D2D2;}
	.st20{fill:#414142;}
	.st21{fill:#FFFEFE;}
	.st22{fill:none;stroke:#ED1C24;stroke-width:2;stroke-miterlimit:10;}
</style>
<g>
	<path class="st18" d="M80.4,1.8L80.4,1.8c2,1.9,5.1,2.3,7.5,0.9l0,0c3-1.7,6.7-0.7,8.5,2.2l0,0c1.5,2.4,4.3,3.5,7,2.8l0,0
		c3.3-0.9,6.7,1,7.7,4.2l0,0c0.8,2.7,3.3,4.5,6.1,4.4l0,0c3.4,0,6.2,2.6,6.4,6l0,0c0.2,2.8,2.1,5.1,4.8,5.8l0,0
		c3.3,0.8,5.4,4.1,4.7,7.4l0,0c-0.5,2.7,0.8,5.5,3.2,6.8l0,0c3,1.6,4.2,5.3,2.7,8.4l0,0c-1.2,2.5-0.6,5.5,1.4,7.4l0,0
		c2.5,2.3,2.7,6.2,0.6,8.8l0,0c-1.8,2.1-2,5.2-0.5,7.5l0,0c1.8,2.9,1.1,6.7-1.6,8.6l0,0c-2.3,1.6-3.2,4.5-2.3,7.2l0,0
		c1.1,3.2-0.6,6.7-3.7,8l0,0c-2.6,1-4.2,3.6-4.1,6.4l0,0c0.2,3.4-2.2,6.4-5.6,6.8l0,0c-2.8,0.3-5,2.4-5.5,5.2l0,0
		c-0.6,3.3-3.7,5.6-7.1,5.2l0,0c-2.8-0.4-5.5,1.1-6.6,3.6l0,0c-1.4,3.1-5,4.5-8.2,3.2l0,0c-2.6-1-5.6-0.3-7.3,1.9l0,0
		c-2.2,2.6-6,3.1-8.7,1.1l0,0c-2.2-1.7-5.3-1.7-7.6,0l0,0c-2.7,2-6.6,1.5-8.7-1.1l0,0c-1.8-2.2-4.7-2.9-7.3-1.9l0,0
		c-3.2,1.3-6.7-0.2-8.2-3.2l0,0c-1.2-2.5-3.9-4-6.6-3.6l0,0c-3.4,0.4-6.5-1.8-7.1-5.2l0,0c-0.5-2.7-2.7-4.8-5.5-5.2h0
		c-3.4-0.4-5.8-3.4-5.6-6.8l0,0c0.2-2.8-1.5-5.4-4.1-6.4h0c-3.2-1.2-4.8-4.7-3.7-8l0,0c0.9-2.6-0.1-5.6-2.3-7.2h0
		c-2.8-2-3.5-5.8-1.6-8.6l0,0c1.5-2.3,1.3-5.4-0.5-7.5l0,0c-2.2-2.6-1.9-6.5,0.6-8.8l0,0c2-1.9,2.6-4.9,1.4-7.4l0,0
		c-1.5-3.1-0.3-6.7,2.7-8.4l0,0c2.5-1.3,3.8-4.1,3.2-6.8l0,0c-0.7-3.3,1.4-6.6,4.7-7.4l0,0c2.7-0.7,4.7-3,4.8-5.8l0,0
		c0.2-3.4,3-6,6.4-6l0,0c2.8,0,5.3-1.8,6.1-4.4l0,0c1-3.2,4.4-5.1,7.7-4.2l0,0c2.7,0.7,5.5-0.4,7-2.8l0,0C57.4,2,61.1,1,64.1,2.7
		l0,0c2.4,1.4,5.5,1,7.5-0.9l0,0C74.1-0.6,77.9-0.6,80.4,1.8z"/>
	<path class="st2" d="M80.2,4.6L80.2,4.6c1.9,1.8,4.8,2.2,7.2,0.9l0,0c2.8-1.6,6.4-0.7,8.1,2.1v0c1.4,2.3,4.1,3.3,6.7,2.7l0,0
		c3.1-0.8,6.4,1,7.4,4l0,0c0.8,2.5,3.2,4.3,5.8,4.3h0c3.2,0,5.9,2.5,6.1,5.8l0,0c0.2,2.7,2,4.9,4.6,5.6l0,0c3.2,0.8,5.1,3.9,4.5,7.1
		l0,0c-0.5,2.6,0.7,5.3,3.1,6.5h0c2.9,1.5,4,5.1,2.6,8l0,0c-1.1,2.4-0.6,5.3,1.4,7.1l0,0c2.4,2.2,2.6,5.9,0.5,8.4l0,0
		c-1.7,2-1.9,5-0.5,7.2l0,0c1.8,2.7,1.1,6.4-1.6,8.3l0,0c-2.2,1.6-3.1,4.3-2.2,6.9l0,0c1,3.1-0.6,6.4-3.6,7.6l0,0
		c-2.5,1-4.1,3.4-3.9,6.1l0,0c0.2,3.2-2.1,6.1-5.4,6.5h0c-2.7,0.3-4.8,2.3-5.3,4.9l0,0c-0.6,3.2-3.6,5.4-6.8,4.9l0,0
		c-2.6-0.3-5.2,1.1-6.3,3.5l0,0c-1.4,2.9-4.8,4.3-7.8,3.1v0c-2.5-1-5.3-0.3-7,1.8l0,0c-2.1,2.5-5.7,3-8.3,1.1l0,0
		c-2.2-1.6-5.1-1.6-7.2,0l0,0c-2.6,1.9-6.3,1.5-8.3-1.1l0,0c-1.7-2.1-4.5-2.8-7-1.8l0,0c-3,1.2-6.4-0.1-7.8-3.1l0,0
		c-1.1-2.4-3.7-3.8-6.3-3.5l0,0c-3.2,0.4-6.2-1.7-6.8-4.9l0,0c-0.5-2.6-2.6-4.6-5.3-4.9l0,0c-3.2-0.4-5.6-3.2-5.4-6.5l0,0
		c0.2-2.7-1.4-5.1-3.9-6.1l0,0c-3-1.2-4.6-4.5-3.6-7.6l0,0c0.8-2.5-0.1-5.3-2.2-6.9l0,0c-2.6-1.9-3.3-5.5-1.6-8.3l0,0
		c1.4-2.2,1.3-5.2-0.5-7.2l0,0c-2.1-2.5-1.9-6.2,0.5-8.4h0c2-1.8,2.5-4.7,1.4-7.1l0,0c-1.4-2.9-0.3-6.4,2.6-8l0,0
		c2.3-1.3,3.6-3.9,3.1-6.5l0,0c-0.6-3.2,1.4-6.3,4.5-7.1h0c2.6-0.6,4.5-2.9,4.6-5.6l0,0c0.2-3.2,2.9-5.8,6.1-5.8l0,0
		c2.7,0,5-1.7,5.8-4.3l0,0c1-3.1,4.2-4.9,7.4-4l0,0c2.6,0.7,5.3-0.4,6.7-2.7v0c1.7-2.8,5.3-3.7,8.1-2.1l0,0c2.3,1.3,5.2,0.9,7.2-0.9
		l0,0C74.2,2.3,77.9,2.3,80.2,4.6z"/>
	<path class="st18" d="M80.1,6L80.1,6c1.9,1.8,4.7,2.2,7,0.9l0,0c2.8-1.5,6.3-0.6,8,2l0,0c1.4,2.2,4,3.3,6.6,2.6h0
		c3.1-0.8,6.2,0.9,7.2,4l0,0c0.8,2.5,3.1,4.2,5.7,4.2h0c3.2,0,5.8,2.5,6,5.6l0,0c0.1,2.6,2,4.8,4.5,5.4l0,0c3.1,0.8,5,3.8,4.4,6.9
		l0,0c-0.5,2.6,0.7,5.1,3,6.4l0,0c2.8,1.5,3.9,4.9,2.5,7.8l0,0c-1.1,2.4-0.6,5.2,1.3,6.9v0c2.3,2.2,2.6,5.8,0.5,8.2v0
		c-1.7,2-1.9,4.9-0.4,7l0,0c1.7,2.7,1,6.2-1.5,8.1h0c-2.1,1.5-3,4.2-2.2,6.7l0,0c1,3-0.5,6.3-3.5,7.4v0c-2.4,0.9-4,3.4-3.8,6v0
		c0.2,3.2-2.1,5.9-5.2,6.3h0c-2.6,0.3-4.7,2.3-5.1,4.8l0,0c-0.6,3.1-3.5,5.2-6.6,4.8l0,0c-2.6-0.3-5.1,1-6.2,3.4l0,0
		c-1.3,2.9-4.7,4.2-7.6,3l0,0c-2.4-1-5.2-0.3-6.8,1.8l0,0c-2,2.5-5.6,2.9-8.1,1h0c-2.1-1.5-5-1.5-7.1,0l0,0c-2.6,1.9-6.1,1.4-8.1-1
		l0,0c-1.7-2-4.4-2.7-6.8-1.8l0,0c-2.9,1.2-6.3-0.1-7.6-3l0,0c-1.1-2.4-3.6-3.7-6.2-3.4l0,0c-3.1,0.4-6.1-1.7-6.6-4.8l0,0
		c-0.5-2.6-2.6-4.5-5.1-4.8l0,0c-3.1-0.4-5.5-3.2-5.2-6.3v0c0.2-2.6-1.4-5-3.8-6v0c-3-1.2-4.5-4.4-3.5-7.4l0,0
		c0.8-2.5-0.1-5.2-2.2-6.7l0,0c-2.6-1.9-3.3-5.4-1.5-8.1l0,0c1.4-2.2,1.2-5-0.4-7v0c-2-2.4-1.8-6,0.5-8.2v0c1.9-1.8,2.4-4.6,1.3-6.9
		l0,0c-1.4-2.9-0.3-6.3,2.5-7.8l0,0c2.3-1.2,3.5-3.8,3-6.4l0,0c-0.6-3.1,1.3-6.2,4.4-6.9h0c2.5-0.6,4.4-2.8,4.5-5.4l0,0
		c0.2-3.2,2.8-5.6,6-5.6l0,0c2.6,0,4.9-1.7,5.7-4.2l0,0c1-3,4.1-4.8,7.2-4l0,0c2.5,0.7,5.2-0.4,6.6-2.6l0,0c1.7-2.7,5.2-3.6,8-2l0,0
		c2.3,1.3,5.1,0.9,7-0.9l0,0C74.2,3.8,77.8,3.8,80.1,6z"/>
	<g>
		<g>
			<g>
				<g>
					<g>
						<polygon class="st2" points="78.2,67.4 75.8,67.4 73.8,67.4 76,7.8 						"/>
					</g>
				</g>
				<g>
					<g>
						<polygon class="st2" points="78.2,65.2 75.8,65.4 73.8,65.6 71,8 						"/>
					</g>
				</g>
				<g>
					<g>
						<polygon class="st2" points="78.2,65 75.8,65.4 73.8,65.8 66,8.6 						"/>
					</g>
				</g>
				<g>
					<g>
						<polygon class="st2" points="78.2,64.8 75.8,65.4 73.8,66 61.1,9.7 						"/>
					</g>
				</g>
				<g>
					<g>
						<polygon class="st2" points="78.1,64.6 75.8,65.4 73.9,66.1 56.3,11.2 						"/>
					</g>
				</g>
				<g>
					<g>
						<polygon class="st2" points="78,64.4 75.8,65.4 74,66.3 51.6,13.1 						"/>
					</g>
				</g>
				<g>
					<g>
						<polygon class="st2" points="77.9,64.2 75.8,65.4 74,66.5 47.2,15.4 						"/>
					</g>
				</g>
				<g>
					<g>
						<polygon class="st2" points="77.8,64.1 75.8,65.4 74.1,66.6 42.9,18.1 						"/>
					</g>
				</g>
				<g>
					<g>
						<polygon class="st2" points="77.7,63.9 75.8,65.4 74.2,66.8 38.9,21.2 						"/>
					</g>
				</g>
				<g>
					<g>
						<polygon class="st2" points="77.5,63.7 75.8,65.4 74.4,66.9 35.2,24.6 						"/>
					</g>
				</g>
				<g>
					<g>
						<polygon class="st2" points="77.4,63.6 75.8,65.4 74.5,67 31.8,28.2 						"/>
					</g>
				</g>
				<g>
					<g>
						<polygon class="st2" points="77.2,63.5 75.8,65.4 74.6,67.1 28.7,32.2 						"/>
					</g>
				</g>
				<g>
					<g>
						<polygon class="st2" points="77,63.3 75.8,65.4 74.8,67.2 26,36.5 						"/>
					</g>
				</g>
				<g>
					<g>
						<polygon class="st2" points="76.8,63.2 75.8,65.4 75,67.3 23.7,40.9 						"/>
					</g>
				</g>
				<g>
					<g>
						<polygon class="st2" points="76.6,63.2 75.8,65.4 75.1,67.4 21.7,45.6 						"/>
					</g>
				</g>
				<g>
					<g>
						<polygon class="st2" points="76.4,63.1 75.8,65.4 75.3,67.4 20.2,50.3 						"/>
					</g>
				</g>
				<g>
					<g>
						<polygon class="st2" points="76.2,63.1 75.8,65.4 75.5,67.5 19.1,55.2 						"/>
					</g>
				</g>
				<g>
					<g>
						<polygon class="st2" points="76,63 75.8,65.4 75.6,67.5 18.4,60.2 						"/>
					</g>
				</g>
				<g>
					<g>
						<polygon class="st2" points="75.8,63 75.8,65.4 75.8,67.5 18.2,65.3 						"/>
					</g>
				</g>
				<g>
					<g>
						<polygon class="st2" points="73.8,65.2 76.2,65.4 78.2,65.6 81,8 						"/>
					</g>
				</g>
				<g>
					<g>
						<polygon class="st2" points="73.8,65 76.2,65.4 78.2,65.8 86,8.6 						"/>
					</g>
				</g>
				<g>
					<g>
						<polygon class="st2" points="73.9,64.8 76.2,65.4 78.2,66 90.9,9.7 						"/>
					</g>
				</g>
				<g>
					<g>
						<polygon class="st2" points="73.9,64.6 76.2,65.4 78.1,66.1 95.7,11.2 						"/>
					</g>
				</g>
				<g>
					<g>
						<polygon class="st2" points="74,64.4 76.2,65.4 78.1,66.3 100.4,13.1 						"/>
					</g>
				</g>
				<g>
					<g>
						<polygon class="st2" points="74.1,64.2 76.2,65.4 78,66.5 104.9,15.4 						"/>
					</g>
				</g>
				<g>
					<g>
						<polygon class="st2" points="74.2,64.1 76.2,65.4 77.9,66.6 109.1,18.1 						"/>
					</g>
				</g>
				<g>
					<g>
						<polygon class="st2" points="74.3,63.9 76.2,65.4 77.8,66.8 113.1,21.2 						"/>
					</g>
				</g>
				<g>
					<g>
						<polygon class="st2" points="74.5,63.7 76.2,65.4 77.6,66.9 116.8,24.6 						"/>
					</g>
				</g>
				<g>
					<g>
						<polygon class="st2" points="74.6,63.6 76.2,65.4 77.5,67 120.2,28.2 						"/>
					</g>
				</g>
				<g>
					<g>
						<polygon class="st2" points="74.8,63.5 76.2,65.4 77.4,67.1 123.3,32.2 						"/>
					</g>
				</g>
				<g>
					<g>
						<polygon class="st2" points="75,63.3 76.2,65.4 77.2,67.2 126,36.5 						"/>
					</g>
				</g>
				<g>
					<g>
						<polygon class="st2" points="75.2,63.2 76.2,65.4 77.1,67.3 128.4,40.9 						"/>
					</g>
				</g>
				<g>
					<g>
						<polygon class="st2" points="75.4,63.2 76.2,65.4 76.9,67.4 130.3,45.6 						"/>
					</g>
				</g>
				<g>
					<g>
						<polygon class="st2" points="75.6,63.1 76.2,65.4 76.7,67.4 131.8,50.3 						"/>
					</g>
				</g>
				<g>
					<g>
						<polygon class="st2" points="75.8,63.1 76.2,65.4 76.6,67.5 132.9,55.2 						"/>
					</g>
				</g>
				<g>
					<g>
						<polygon class="st2" points="76,63 76.2,65.4 76.4,67.5 133.6,60.2 						"/>
					</g>
				</g>
				<g>
					<g>
						<polygon class="st2" points="76.2,63 76.2,65.4 76.2,67.5 133.8,65.3 						"/>
					</g>
				</g>
			</g>
		</g>
		<g>
			<g>
				<g>
					<g>
						<polygon class="st2" points="73.8,65.5 76.2,65.5 78.2,65.5 76,125.1 						"/>
					</g>
				</g>
				<g>
					<g>
						<polygon class="st2" points="73.8,67.6 76.2,67.4 78.2,67.2 81,124.9 						"/>
					</g>
				</g>
				<g>
					<g>
						<polygon class="st2" points="73.8,67.8 76.2,67.4 78.2,67.1 86,124.2 						"/>
					</g>
				</g>
				<g>
					<g>
						<polygon class="st2" points="73.9,68.1 76.2,67.4 78.2,66.9 90.9,123.2 						"/>
					</g>
				</g>
				<g>
					<g>
						<polygon class="st2" points="73.9,68.3 76.2,67.4 78.1,66.7 95.7,121.7 						"/>
					</g>
				</g>
				<g>
					<g>
						<polygon class="st2" points="74,68.5 76.2,67.4 78.1,66.6 100.4,119.7 						"/>
					</g>
				</g>
				<g>
					<g>
						<polygon class="st2" points="74.1,68.6 76.2,67.4 78,66.4 104.9,117.4 						"/>
					</g>
				</g>
				<g>
					<g>
						<polygon class="st2" points="74.2,68.8 76.2,67.4 77.9,66.2 109.1,114.8 						"/>
					</g>
				</g>
				<g>
					<g>
						<polygon class="st2" points="74.3,69 76.2,67.4 77.8,66.1 113.1,111.7 						"/>
					</g>
				</g>
				<g>
					<g>
						<polygon class="st2" points="74.5,69.1 76.2,67.4 77.6,66 116.8,108.3 						"/>
					</g>
				</g>
				<g>
					<g>
						<polygon class="st2" points="74.6,69.3 76.2,67.4 77.5,65.9 120.2,104.6 						"/>
					</g>
				</g>
				<g>
					<g>
						<polygon class="st2" points="74.8,69.4 76.2,67.4 77.4,65.7 123.3,100.6 						"/>
					</g>
				</g>
				<g>
					<g>
						<polygon class="st2" points="75,69.5 76.2,67.4 77.2,65.6 126,96.4 						"/>
					</g>
				</g>
				<g>
					<g>
						<polygon class="st2" points="75.2,69.6 76.2,67.4 77.1,65.6 128.4,92 						"/>
					</g>
				</g>
				<g>
					<g>
						<polygon class="st2" points="75.4,69.7 76.2,67.4 76.9,65.5 130.3,87.3 						"/>
					</g>
				</g>
				<g>
					<g>
						<polygon class="st2" points="75.6,69.8 76.2,67.4 76.7,65.4 131.8,82.5 						"/>
					</g>
				</g>
				<g>
					<g>
						<polygon class="st2" points="75.8,69.8 76.2,67.4 76.6,65.4 132.9,77.6 						"/>
					</g>
				</g>
				<g>
					<g>
						<polygon class="st2" points="76,69.8 76.2,67.4 76.4,65.4 133.6,72.6 						"/>
					</g>
				</g>
				<g>
					<g>
						<polygon class="st2" points="76.2,69.9 76.2,67.4 76.2,65.4 133.8,67.6 						"/>
					</g>
				</g>
				<g>
					<g>
						<polygon class="st2" points="78.2,67.6 75.8,67.4 73.8,67.2 71,124.9 						"/>
					</g>
				</g>
				<g>
					<g>
						<polygon class="st2" points="78.2,67.8 75.8,67.4 73.8,67.1 66,124.2 						"/>
					</g>
				</g>
				<g>
					<g>
						<polygon class="st2" points="78.2,68.1 75.8,67.4 73.8,66.9 61.1,123.2 						"/>
					</g>
				</g>
				<g>
					<g>
						<polygon class="st2" points="78.1,68.3 75.8,67.4 73.9,66.7 56.3,121.7 						"/>
					</g>
				</g>
				<g>
					<g>
						<polygon class="st2" points="78,68.5 75.8,67.4 74,66.6 51.6,119.7 						"/>
					</g>
				</g>
				<g>
					<g>
						<polygon class="st2" points="77.9,68.6 75.8,67.4 74,66.4 47.2,117.4 						"/>
					</g>
				</g>
				<g>
					<g>
						<polygon class="st2" points="77.8,68.8 75.8,67.4 74.1,66.2 42.9,114.8 						"/>
					</g>
				</g>
				<g>
					<g>
						<polygon class="st2" points="77.7,69 75.8,67.4 74.2,66.1 38.9,111.7 						"/>
					</g>
				</g>
				<g>
					<g>
						<polygon class="st2" points="77.5,69.1 75.8,67.4 74.4,66 35.2,108.3 						"/>
					</g>
				</g>
				<g>
					<g>
						<polygon class="st2" points="77.4,69.3 75.8,67.4 74.5,65.9 31.8,104.6 						"/>
					</g>
				</g>
				<g>
					<g>
						<polygon class="st2" points="77.2,69.4 75.8,67.4 74.6,65.7 28.7,100.6 						"/>
					</g>
				</g>
				<g>
					<g>
						<polygon class="st2" points="77,69.5 75.8,67.4 74.8,65.6 26,96.4 						"/>
					</g>
				</g>
				<g>
					<g>
						<polygon class="st2" points="76.8,69.6 75.8,67.4 75,65.6 23.7,92 						"/>
					</g>
				</g>
				<g>
					<g>
						<polygon class="st2" points="76.6,69.7 75.8,67.4 75.1,65.5 21.7,87.3 						"/>
					</g>
				</g>
				<g>
					<g>
						<polygon class="st2" points="76.4,69.8 75.8,67.4 75.3,65.4 20.2,82.5 						"/>
					</g>
				</g>
				<g>
					<g>
						<polygon class="st2" points="76.2,69.8 75.8,67.4 75.5,65.4 19.1,77.6 						"/>
					</g>
				</g>
				<g>
					<g>
						<polygon class="st2" points="76,69.8 75.8,67.4 75.6,65.4 18.4,72.6 						"/>
					</g>
				</g>
				<g>
					<g>
						<polygon class="st2" points="75.8,69.9 75.8,67.4 75.8,65.4 18.2,67.6 						"/>
					</g>
				</g>
			</g>
		</g>
	</g>
	<g>
		<g>
			<g>
				<g>
					<path class="st2" d="M115,104.9c-0.9-0.1-1.2-1-1.3-1.4c-0.4-1.4-0.5-7.9-0.2-9.5c0.3-1.5,1.3-3.1,2.9-3c0.5,0.1,1,0.3,1.5,0.7
						c1,1,2.2,1.1,2.3,1.2c3.5,0.2,6-1,7.9-3.7c3.1-4.3,2.8-9.1,2.3-11.6c-0.7-3.5-2.4-6.6-4.5-8c-0.8-0.5-1.6-0.8-2.3-0.9
						c-2.3-0.2-3.5,2-3.5,2c-0.2,0.4-0.4,0.9-0.6,1.3c-0.3,0.8-0.7,1.9-1.8,1.8c-1.5-0.1-2.1-2.2-1.8-5.7c0.3-3,3-4.4,3.1-4.5
						c1.6-0.8,3.3-1.1,5.2-0.9c7.1,0.7,14,8.3,12.9,19.4c-0.8,8-4.2,14.2-10.2,18.2c-2.1,1.4-5.6,3.3-10.5,4.1c-0.1,0-0.2,0-0.2,0
						c-0.1,0-0.2,0.1-0.3,0.1C115.7,104.8,115.4,104.9,115,104.9L115,104.9z"/>
				</g>
				<g>
					<path class="st18" d="M124.1,63.7c6.3,0.6,13.1,7.5,12,18.3c-1.9,19.5-19.4,21.4-20.1,21.6c-0.4,0.1-0.7,0.4-0.9,0.3
						c-0.2,0-0.3-0.2-0.4-0.7c-0.3-1.2-0.5-7.5-0.2-9c0.2-1.1,0.9-2.3,1.8-2.2c0.3,0,0.6,0.2,0.9,0.5c1.3,1.2,2.8,1.4,2.9,1.4
						c0,0,0,0,0,0c4.9,0.2,7.4-2.1,8.8-4.1c5.3-7.4,2.2-17.9-2.5-21c-1-0.7-1.9-1-2.7-1.1c-2.9-0.3-4.5,2.5-4.5,2.5
						c-0.7,1.2-0.9,2.6-1.4,2.5c-0.7-0.1-1.2-1.8-0.9-4.6c0.2-2.5,2.6-3.7,2.6-3.7C120.8,63.8,122.4,63.6,124.1,63.7 M124.2,61.8
						c-2-0.2-4,0.1-5.7,1c0,0,0,0,0,0c-1.2,0.6-3.3,2.5-3.6,5.3c-0.6,5.6,1.4,6.6,2.6,6.7c1.8,0.2,2.5-1.5,2.8-2.4
						c0.1-0.4,0.3-0.8,0.5-1.1c0,0,0,0,0-0.1c0-0.1,1-1.7,2.6-1.5c0.6,0.1,1.2,0.3,1.8,0.7c1.9,1.2,3.5,4.1,4.1,7.4
						c0.4,2.3,0.7,6.8-2.1,10.8c-1.7,2.4-3.9,3.4-7,3.3c-0.1,0-1-0.2-1.8-0.9c-0.6-0.6-1.3-0.9-2.1-1l0,0c-1.9-0.2-3.5,1.4-3.9,3.8
						c-0.3,1.7-0.2,8.3,0.3,9.9c0.4,1.3,1.1,2,2.1,2.1c0.7,0.1,1.2-0.2,1.4-0.3c0,0,0.1,0,0.1,0c0,0,0.1,0,0.1,0
						c5-0.9,8.7-2.8,10.9-4.3c6.1-4.2,9.8-10.7,10.6-18.9C139.2,70.6,131.8,62.5,124.2,61.8L124.2,61.8z"/>
				</g>
			</g>
			<g>
				<path class="st18" d="M136.1,82c0.2-1.6,0.1-3,0-4.4c-0.5,14.8-9.7,20.2-7.2,17.5c2.5-2.7,3.6-9.2,3.6-9.2
					c-1.8,6.5-5.4,8.3-6.5,9c-1.4,0.9-2.2,0.7-2.3,0.2c-0.3-0.9,1.6-2.1,1.6-2.1l0,0c-1.3,0.6-3,1-5.1,0.9c0,0-1.6-0.1-2.9-1.4
					c-1.3-1.3-2.5,0.2-2.7,1.7c-0.3,1.5-0.1,7.8,0.2,9c0.3,1.2,0.6,0.6,1.3,0.4C116.7,103.4,134.2,101.5,136.1,82z"/>
			</g>
			<g>
				<path class="st18" d="M126.4,67.4c0.7,0.1,1.6,0.7,1.6,0.7c-1.5-2.4-4.6-2.5-4.6-2.5c-1.6-0.3-0.4-1.9-0.4-1.9
					c-1.3,0-2.5,0.3-3.6,0.9c0,0-2.3,1.2-2.6,3.7c-0.3,2.8,0.2,4.5,0.9,4.6c0.6,0.1,0.7-1.3,1.4-2.5c0,0,2.5-4.6,7.2-1.5
					c2.6,1.7,4.6,5.5,5.1,9.9l0,0C131.1,71.8,126.4,67.4,126.4,67.4z"/>
			</g>
			<g>
				<path class="st18" d="M130.8,66.3c0,0,9.4,6.4,4,20.9c0,0,0.6-3.3,0.6-6.4c0,0-0.9,4.1-2.7,7.2c0,0,2.8-8.2,1.5-13
					c-1.3-4.9-3.6-6.5-3.6-6.5s2.2,1.3,3.2,2.9C133.7,71.4,133.1,68.9,130.8,66.3z"/>
			</g>
		</g>
		<g>
			<g>
				<path class="st2" d="M96.7,111.9c-0.5,0-11.8-1.2-14.5-2c-3.4-1-3.5-3.4-3.5-3.5c0,0,0,0,0-0.1C80,80.3,85,55.4,85.4,54.1
					c0.2-0.8,0.2-1.2,0.2-1.6c0-0.2,0-0.4,0-0.7c0.1-1,1-1.5,1.9-1.4c0.1,0,11.4,0.7,15.2,1.1l0.1,0c4.2,0.4,16.2,2,16.3,2
					c0.9,0.1,1.7,0.8,1.6,1.8c0,0.3-0.1,0.5-0.1,0.7c-0.1,0.3-0.2,0.7-0.1,1.6c0.1,1.3,0.1,26.7-3.7,52.5c0,0,0,0,0,0.1
					c0,0.1-0.6,2.5-4.1,2.8C109.7,113.2,97.2,111.9,96.7,111.9z"/>
			</g>
			<g>
				<path class="st18" d="M102.7,52.6c4.2,0.4,16.3,2,16.3,2s0.8,0.1,0.7,0.7c-0.1,0.6-0.4,0.9-0.2,2.4c0.1,1.5,0.1,26.7-3.7,52.3
					c0,0-0.4,1.8-3.3,2c-2.8,0.2-15.7-1.1-15.7-1.1s-11.7-1.2-14.4-1.9c-2.8-0.8-2.8-2.6-2.8-2.6c1.3-25.8,6.2-50.5,6.7-52
					c0.4-1.4,0.2-1.8,0.2-2.4c0.1-0.6,0.8-0.5,0.8-0.5s11.4,0.7,15.2,1.1C102.6,52.6,102.6,52.6,102.7,52.6 M102.8,50.7l-0.1,0
					C99,50.3,88,49.6,87.5,49.5c-1.5-0.1-2.8,0.9-2.9,2.3c0,0.3,0,0.6,0,0.8c0,0.3,0,0.6-0.2,1.2c-0.4,1.3-5.4,26.3-6.7,52.4
					c0,0,0,0.1,0,0.1c0,1.2,0.9,3.5,4.2,4.4c2.8,0.8,13.5,1.9,14.7,2c1.3,0.1,13.2,1.3,16,1.1c3.4-0.3,4.7-2.4,5-3.5
					c0,0,0-0.1,0-0.1c3.8-25.9,3.8-51.4,3.7-52.7c-0.1-0.7,0-0.9,0.1-1.2c0.1-0.2,0.1-0.5,0.2-0.8c0.1-1.4-0.9-2.6-2.4-2.8
					C118.7,52.6,107,51.1,102.8,50.7L102.8,50.7z"/>
			</g>
		</g>
		<g>
			<path class="st18" d="M87.4,62.6c0,0,2.2,1.2,5.8-2.3c2.5-2.4,3.3,2,7.2,1.2l0.6-6.2L88.3,54L87.4,62.6z"/>
		</g>
		<g>
			<path class="st18" d="M102.2,59.5c0,0,3.4-1.9,5.6,1.1c2,2.7,8-0.3,10.3,4.5c1.7,3.4,1.6,7.8,1.6,7.8l-0.2-16.8l-16.8-1.7
				L102.2,59.5z"/>
		</g>
		<g>
			<path class="st18" d="M86.9,62.5c-1.6,8.1-4.4,25.5-5.3,43.7c0.1,0.1,0.4,0.4,1.1,0.6c1.9,0.5,9.8,1.4,14.3,1.9
				c5,0.5,13.8,1.2,15.7,1.1c0.8-0.1,1.1-0.2,1.2-0.3c2.7-18,3.3-35.6,3.3-43.9L86.9,62.5z"/>
		</g>
		<g>
			<path class="st2" d="M115.1,65.3l-2.9-0.3c-0.3,9.8-1.1,26.8-3.5,44.5c0.9,0,1.5,0,1.9,0c0.8-0.1,1.1-0.2,1.2-0.3
				C114.5,91.2,115.1,73.6,115.1,65.3z"/>
		</g>
		<g>
			<path class="st2" d="M88.6,102.1c-0.7-0.4-1.4-1-1.3-1.9c0.2-16.8,2.4-29.2,4-37.3L89,62.7c-1.6,8.1-4.1,22.2-5,40.4
				c0.1,0.1,0.4,0.4,1.1,0.6c1.9,0.5,9.8,1.4,14.3,1.9c0.5,0,2.8,0.2,3.4,0.3C96.9,104.6,90.6,103.3,88.6,102.1z"/>
		</g>
		<g>
			<path class="st2" d="M93.1,63.1c0,0-2,9.3-3.4,22.7c-0.7,6.9-0.6,11-0.6,11s2.7-22,6.5-33.4L93.1,63.1z"/>
		</g>
		<g>
			<g>
				<path class="st2" d="M96.7,111.9c-0.5,0-11.8-1.2-14.5-2c-3.4-1-3.5-3.4-3.5-3.5c0,0,0,0,0-0.1c0.1-1.2,0.2-2.5,0.2-3.8l0-0.6
					c0-0.3,0.2-0.6,0.4-0.7c0.2-0.1,0.4-0.2,0.6-0.2c0.1,0,0.1,0,0.2,0c4.6,1.3,11.6,2.5,19.1,3.3c6.3,0.6,12.3,0.9,16.9,0.7
					c0,0,0.1,0,0.1,0c0.2,0,0.5,0.1,0.6,0.3c0.2,0.2,0.3,0.5,0.2,0.8l-0.1,0.8c-0.1,1-0.3,2.2-0.4,3.2c0,0,0,0,0,0.1
					c0,0.1-0.6,2.5-4.1,2.8C109.7,113.2,97.2,111.9,96.7,111.9z"/>
			</g>
			<g>
				<path class="st18" d="M79.9,102c4.4,1.3,11.4,2.5,19.3,3.3c6.6,0.7,12.6,0.9,17.1,0.7c-0.2,1.2-0.4,2.7-0.5,3.9
					c0,0-0.4,1.8-3.3,2c-2.8,0.2-15.7-1.1-15.7-1.1s-11.7-1.2-14.4-1.9c-2.8-0.8-2.8-2.6-2.8-2.6C79.7,105,79.8,103.4,79.9,102
					 M116.3,106L116.3,106 M80.1,100.1c-0.5,0-0.9,0.1-1.3,0.3c-0.5,0.3-0.8,0.9-0.8,1.5l0,0.6c-0.1,1.2-0.2,2.7-0.2,3.8
					c0,0,0,0.1,0,0.1c0,1.2,0.9,3.5,4.2,4.4c2.8,0.8,13.5,1.9,14.7,2c1.3,0.1,13.2,1.3,16,1.1c3.4-0.3,4.7-2.4,5-3.5
					c0,0,0-0.1,0-0.1c0.1-1,0.3-2.1,0.4-3.2l0.1-0.7c0,0,0-0.1,0-0.1c0.1-1.1-0.7-2-1.7-2.1c0,0,0,0,0,0c0,0,0,0,0,0
					c-0.1,0-0.2,0-0.3,0c-4.6,0.2-10.5-0.1-16.8-0.7c-7.5-0.7-14.4-1.9-19-3.3C80.3,100.1,80.2,100.1,80.1,100.1L80.1,100.1z"/>
			</g>
		</g>
		<g>
			<path class="st18" d="M93.2,105.7c-0.6-0.1-1.2,0.3-1.5,0.8c-0.2,0.3-0.5,0.5-0.9,0.5c-0.7,0-1.4,0-2.2-0.1
				c-0.4,0-0.5,0.5-0.2,0.7c0,0,0,0,0.1,0c0.8,0.3,0.5,1.5-0.3,1.5c-1.8-0.1-4.2-0.3-7.1-0.7c0.4,0.2,0.8,0.5,1.4,0.6
				c2.7,0.8,14.4,1.9,14.4,1.9s12.9,1.3,15.7,1.1c2.9-0.2,3.3-2,3.3-2c0.2-1.2,0.4-2.7,0.5-3.9C109.4,107.2,99.8,106.4,93.2,105.7z"
				/>
		</g>
		<g>
			<path class="st2" d="M119.4,56.5c0,0-0.8,2.3-3.5,2c-2.7-0.2-6.6-2.3-9.3-2.1c-2.6,0.2-4.6,4.8-7.3,3.9c-2.6-0.9-3.1-3.8-5.1-2.4
				c-2,1.3-2.7,3.6-5.8,2.3C85.4,59,85.4,78.9,81.9,80c-3.5,1.1-5.1-3.1-2.8-8c2.3-4.9,3.3-11.1,2.9-12.4c-0.4-1.3-4-5.8-1.7-10.7
				c2-4.1,6.1-4.2,6.1-4.2s3.5-7.8,10-7.4c6.4,0.4,7.8,5.7,7.8,5.7s6.1-3.4,11,2.3c0,0,5-3.3,7.7,3c0,0,3.1,3.1,1.2,6.5
				C122.6,57.3,119.4,56.5,119.4,56.5z"/>
			<path class="st18" d="M80.5,81.1c-0.9-0.1-1.6-0.5-2.2-1.1c-1.6-1.8-1.6-5.1,0-8.4c2.3-5,3.1-10.8,2.9-11.7
				c-0.1-0.2-0.3-0.6-0.5-1c-1.1-2.1-3.2-6-1.1-10.4c1.8-3.6,5-4.5,6.4-4.7c1-1.8,4.6-7.8,10.6-7.4c5.2,0.3,7.4,3.6,8.2,5.4
				c2-0.7,6.7-1.8,10.7,2.3c0.9-0.4,2.5-0.9,4.2-0.4c1.7,0.5,3.1,1.9,4.1,4.1c1.2,1.3,2.9,4.5,1.2,7.5c-1.2,2.1-3.5,2.5-5,2.4
				c-0.6,1-2,2.1-4.1,2c-1.3-0.1-2.8-0.6-4.3-1.1c-1.7-0.6-3.5-1.1-4.8-1c-0.8,0.1-1.8,0.9-2.7,1.8c-1.4,1.3-3,2.8-5,2.1
				c-1.3-0.5-2.1-1.3-2.8-2c-0.9-0.9-1-0.9-1.4-0.6c-0.5,0.3-0.9,0.7-1.2,1.1c-1.1,1.1-2.5,2.5-5.4,1.4c-0.8,0.8-1.5,5.3-2,8.2
				c-1.1,6.7-1.9,10.8-4.1,11.5C81.6,81.1,81,81.2,80.5,81.1z M96.8,38.3c-0.1,0-0.3,0-0.4,0c-5.7-0.3-9,6.7-9,6.8
				c-0.2,0.3-0.5,0.6-0.9,0.6c-0.1,0-3.6,0.2-5.3,3.6c-1.7,3.5,0,6.7,1.1,8.7c0.3,0.6,0.5,1,0.6,1.4c0.5,1.8-0.8,8.3-3,13.1
				c-1.4,3-1.1,5.4-0.3,6.3c0.5,0.5,1.1,0.6,1.9,0.4c1.2-0.4,2.2-6.6,2.8-9.9c0.9-5.6,1.5-8.8,3-9.7c0.5-0.3,1-0.3,1.5-0.1
				c1.7,0.7,2.3,0.2,3.4-0.9c0.4-0.4,0.9-0.9,1.5-1.3c1.8-1.2,3,0,3.8,0.8c0.6,0.6,1.2,1.2,2.1,1.5c0.8,0.3,1.7-0.4,3-1.7
				c1.1-1.1,2.3-2.2,3.8-2.3c1.7-0.1,3.6,0.5,5.5,1.1c1.4,0.4,2.8,0.9,3.9,1c1.9,0.1,2.5-1.4,2.5-1.4c0.2-0.5,0.7-0.7,1.1-0.6
				c0.1,0,2.5,0.5,3.6-1.4c1.5-2.6-0.9-5.2-1-5.3c-0.1-0.1-0.2-0.2-0.2-0.3c-0.8-1.8-1.7-2.8-2.9-3.2c-1.7-0.5-3.4,0.6-3.4,0.6
				c-0.4,0.3-0.9,0.2-1.3-0.2c-4.3-5-9.6-2.2-9.8-2c-0.3,0.1-0.6,0.2-0.9,0c-0.3-0.1-0.5-0.4-0.6-0.7C103.2,43,102,38.8,96.8,38.3z"
				/>
		</g>
		<g>
			<path class="st18" d="M80.3,76.2c0,0-1.1-0.1-0.4-1.8c0,0-1.5,3.6,0.6,3.8c0,0,1.7,0.6,2.5-4.6c0.8-5.2,1.6-14.1,4.1-14.8
				c0,0-2.9-0.1-3.3,3.1C83.4,65,82.5,76.4,80.3,76.2z"/>
		</g>
		<g>
			<path class="st18" d="M115.6,46.4c0,0,4.4-2.7,6,2.4c0,0,2.5,1.9,1.6,4c-0.8,2.1-3.4,2.9-4.7,2.2c0,0-0.6,4.9-6.7,1.5
				c0,0-5.1-2.9-7.6-0.2c0,0,2.8-3.9,6.6-2.2c3.1,1.4,6.5,3.1,7-0.8c0,0,2.5,1.7,3.4-0.6c0.7-1.9-0.9-2.8-0.9-2.8
				S120.6,45.9,115.6,46.4z"/>
		</g>
		<g>
			<path class="st18" d="M103.5,55.5c0,0-2.3,2.9-3.2,2.8c-0.9-0.1-1.8-2.3-5.1-2.6c0,0,2.5-0.5,3.8,0.7
				C100.2,57.5,102,56.9,103.5,55.5z"/>
		</g>
		<g>
			<path class="st18" d="M109.1,42.6c0,0,5.8,2.2,5.4,6.6c0,0-1,3.8-4.7,3.2c0,0,5.6,1.8,6.1-3.9C116.4,44.4,112.5,42.7,109.1,42.6z
				"/>
		</g>
		<g>
			<path class="st18" d="M96.4,36.8c0,0,7.1,2.6,5.7,6.9c-1.4,4.6-8.8,6.6-8.8,6.6s10.6,0.1,11.3-6.9
				C105.2,38.1,96.4,36.8,96.4,36.8z"/>
		</g>
		<g>
			<path class="st18" d="M81.9,51.1c0,0-0.1,3.8,3.4,4.1c3.5,0.3,4.7-3.9,10.2-3.4c0,0-4.7,1-7.3,4.7C85.6,60.2,79.4,57,81.9,51.1z"
				/>
		</g>
		<g>
			<path class="st18" d="M107.1,50.8c0,0-1.1,3.6-5,3.1c-3.8-0.5-6.6-1.3-9.4,2.4c0,0-1.6,2.4-3.9,2.2c0,0,2.6-1.7,3.1-3.3
				c0.5-1.6,2.9-3.5,5.9-2.9C100.8,52.8,104.2,54.2,107.1,50.8z"/>
		</g>
	</g>
	<g>
		<g>
			<g>
				<g>
					<path class="st2" d="M39.6,95c0.9-0.1,1.2-1,1.3-1.4c0.4-1.4,0.5-7.9,0.2-9.5c-0.3-1.5-1.3-3.1-2.9-3c-0.5,0.1-1,0.3-1.5,0.7
						c-1,1-2.2,1.1-2.3,1.2c-3.5,0.2-6-1-7.9-3.7c-3.1-4.3-2.8-9.1-2.3-11.6c0.7-3.5,2.4-6.6,4.5-8c0.8-0.5,1.6-0.8,2.3-0.9
						c2.3-0.2,3.5,2,3.5,2c0.2,0.4,0.4,0.9,0.6,1.3c0.3,0.8,0.7,1.9,1.8,1.8c1.5-0.1,2.1-2.2,1.8-5.7c-0.3-3-3-4.4-3.1-4.5
						c-1.6-0.8-3.3-1.1-5.2-0.9c-7.1,0.7-14,8.3-12.9,19.4c0.8,8,4.2,14.2,10.2,18.2c2.1,1.4,5.6,3.3,10.5,4.1c0.1,0,0.2,0,0.2,0
						c0.1,0,0.2,0.1,0.3,0.1C38.9,94.8,39.2,95,39.6,95L39.6,95z"/>
				</g>
				<g>
					<path class="st18" d="M30.5,53.8c1.6-0.2,3.2,0.1,4.6,0.8c0,0,2.3,1.2,2.6,3.7c0.3,2.8-0.2,4.5-0.9,4.6
						c-0.6,0.1-0.7-1.3-1.4-2.5c0,0-1.5-2.8-4.5-2.5c-0.8,0.1-1.7,0.4-2.7,1.1c-4.7,3.1-7.8,13.5-2.5,21c1.4,2,3.9,4.3,8.8,4.1
						c0,0,0,0,0,0c0.1,0,1.6-0.2,2.9-1.4c0.3-0.3,0.6-0.5,0.9-0.5c0.9-0.1,1.6,1,1.8,2.2c0.3,1.5,0.1,7.8-0.2,9
						c-0.1,0.5-0.3,0.7-0.4,0.7c-0.2,0-0.5-0.2-0.9-0.3c-0.7-0.2-18.2-2.1-20.1-21.6C17.4,61.3,24.2,54.4,30.5,53.8 M30.3,51.9
						c-7.5,0.7-14.9,8.8-13.8,20.4c0.8,8.2,4.5,14.8,10.6,18.9c2.2,1.5,5.9,3.4,10.9,4.3c0,0,0.1,0,0.1,0c0,0,0.1,0,0.1,0
						c0.3,0.1,0.8,0.4,1.4,0.3c1-0.1,1.7-0.8,2.1-2.1c0.4-1.5,0.6-8.1,0.3-9.9c-0.4-2.4-2-4-3.9-3.8h0c-0.7,0.1-1.4,0.4-2.1,1
						c-0.7,0.7-1.6,0.9-1.8,0.9c-3.1,0.1-5.4-0.9-7-3.3c-2.9-4.1-2.6-8.5-2.1-10.8c0.6-3.2,2.2-6.2,4.1-7.4c0.7-0.4,1.3-0.7,1.8-0.7
						c1.6-0.2,2.6,1.5,2.6,1.5c0,0,0,0,0,0.1c0.2,0.3,0.3,0.7,0.5,1.1c0.3,0.8,1,2.5,2.8,2.4c1.2-0.1,3.2-1.2,2.6-6.7
						c-0.3-2.8-2.4-4.6-3.6-5.3c0,0,0,0,0,0C34.3,52,32.3,51.7,30.3,51.9L30.3,51.9z"/>
				</g>
			</g>
			<g>
				<path class="st18" d="M18.5,72.1c-0.2-1.6-0.1-3,0-4.4c0.5,14.8,9.7,20.2,7.2,17.5c-2.5-2.7-3.6-9.2-3.6-9.2
					c1.8,6.5,5.4,8.3,6.5,9c1.4,0.9,2.2,0.7,2.3,0.2c0.3-0.9-1.6-2.1-1.6-2.1l0,0c1.3,0.6,3,1,5.1,0.9c0,0,1.6-0.1,2.9-1.4
					c1.3-1.3,2.5,0.2,2.7,1.7c0.3,1.5,0.1,7.8-0.2,9c-0.3,1.2-0.6,0.6-1.3,0.4C37.9,93.5,20.4,91.6,18.5,72.1z"/>
			</g>
			<g>
				<path class="st18" d="M28.2,57.5c-0.7,0.1-1.6,0.7-1.6,0.7c1.5-2.4,4.6-2.5,4.6-2.5c1.6-0.3,0.4-1.9,0.4-1.9
					c1.3,0,2.5,0.3,3.6,0.9c0,0,2.3,1.2,2.6,3.7c0.3,2.8-0.2,4.5-0.9,4.6c-0.6,0.1-0.7-1.3-1.4-2.5c0,0-2.5-4.6-7.2-1.5
					c-2.6,1.7-4.6,5.5-5.1,9.9h0C23.5,61.9,28.2,57.5,28.2,57.5z"/>
			</g>
			<g>
				<path class="st18" d="M23.8,56.4c0,0-9.4,6.4-4,20.9c0,0-0.6-3.3-0.6-6.4c0,0,0.9,4.1,2.7,7.2c0,0-2.8-8.2-1.5-13
					c1.3-4.9,3.6-6.5,3.6-6.5s-2.2,1.3-3.2,2.9C20.8,61.4,21.5,58.9,23.8,56.4z"/>
			</g>
		</g>
		<g>
			<g>
				<path class="st2" d="M57.9,102c0.5,0,11.8-1.2,14.5-2c3.4-1,3.5-3.4,3.5-3.5c0,0,0,0,0-0.1c-1.3-26.1-6.3-50.9-6.7-52.2
					C68.9,43.4,69,43,69,42.7c0-0.2,0-0.4,0-0.7c-0.1-1-1-1.5-1.9-1.4c-0.1,0-11.4,0.7-15.2,1.1l-0.1,0c-4.2,0.4-16.2,2-16.3,2
					c-0.9,0.1-1.7,0.8-1.6,1.8c0,0.3,0.1,0.5,0.1,0.7c0.1,0.3,0.2,0.7,0.1,1.6c-0.1,1.3-0.1,26.7,3.7,52.5c0,0,0,0,0,0.1
					c0,0.1,0.6,2.5,4.1,2.8C44.8,103.2,57.3,102,57.9,102z"/>
			</g>
			<g>
				<path class="st18" d="M51.9,42.7c0,0,0.1,0,0.1,0c3.8-0.4,15.2-1.1,15.2-1.1s0.8,0,0.9,0.5c0.1,0.6-0.2,1,0.2,2.4
					c0.4,1.4,5.3,26.2,6.7,52c0,0,0,1.8-2.8,2.6c-2.7,0.8-14.4,1.9-14.4,1.9s-12.9,1.3-15.7,1.1c-2.9-0.2-3.3-2-3.3-2
					c-3.8-25.5-3.8-50.8-3.7-52.3c0.1-1.5-0.2-1.8-0.2-2.4c-0.1-0.6,0.7-0.7,0.7-0.7S47.7,43.1,51.9,42.7 M51.7,40.7
					c-4.2,0.4-15.8,2-16.3,2c-1.5,0.2-2.5,1.4-2.4,2.8c0,0.3,0.1,0.6,0.2,0.8c0.1,0.3,0.1,0.5,0.1,1.2c-0.1,1.3-0.1,26.8,3.7,52.7
					c0,0,0,0.1,0,0.1c0.3,1.2,1.6,3.3,5,3.5c2.9,0.2,14.7-0.9,16-1.1c1.2-0.1,11.9-1.2,14.7-2c3.3-0.9,4.2-3.2,4.2-4.4
					c0,0,0-0.1,0-0.1c-1.3-26.1-6.4-51.1-6.7-52.4c-0.2-0.7-0.2-0.9-0.2-1.2c0-0.2,0-0.5,0-0.8c-0.1-1.4-1.4-2.4-2.9-2.3
					c-0.5,0-11.4,0.7-15.2,1.1L51.7,40.7L51.7,40.7z"/>
			</g>
		</g>
		<g>
			<path class="st18" d="M67.1,52.7c0,0-2.2,1.2-5.8-2.3c-2.5-2.4-3.3,2-7.2,1.2l-0.6-6.2l12.8-1.3L67.1,52.7z"/>
		</g>
		<g>
			<path class="st18" d="M52.3,49.6c0,0-3.4-1.9-5.6,1.1c-2,2.7-8-0.3-10.3,4.5c-1.7,3.4-1.6,7.8-1.6,7.8L35,46.2l16.8-1.7
				L52.3,49.6z"/>
		</g>
		<g>
			<path class="st18" d="M67.7,52.6c1.6,8.1,4.4,25.5,5.3,43.7c-0.1,0.1-0.4,0.4-1.1,0.6c-1.9,0.5-9.8,1.4-14.3,1.9
				c-5,0.5-13.8,1.2-15.7,1.1c-0.8-0.1-1.1-0.2-1.2-0.3c-2.7-18-3.3-35.6-3.3-43.9L67.7,52.6z"/>
		</g>
		<g>
			<path class="st2" d="M39.4,55.4l2.9-0.3c0.3,9.8,1.1,26.8,3.5,44.5c-0.9,0-1.5,0-1.9,0c-0.8-0.1-1.1-0.2-1.2-0.3
				C40.1,81.3,39.5,63.7,39.4,55.4z"/>
		</g>
		<g>
			<path class="st2" d="M66,92.2c0.7-0.4,1.4-1,1.3-1.9c-0.2-16.8-2.4-29.2-4-37.3l2.3-0.2c1.6,8.1,4.1,22.2,5,40.4
				c-0.1,0.1-0.4,0.4-1.1,0.6c-1.9,0.5-9.8,1.4-14.3,1.9c-0.5,0-2.8,0.2-3.4,0.3C57.7,94.7,64,93.4,66,92.2z"/>
		</g>
		<g>
			<path class="st2" d="M61.5,53.2c0,0,2,9.3,3.4,22.7c0.7,6.9,0.6,11,0.6,11s-2.7-22-6.5-33.4L61.5,53.2z"/>
		</g>
		<g>
			<g>
				<path class="st2" d="M57.9,102c0.5,0,11.8-1.2,14.5-2c3.4-1,3.5-3.4,3.5-3.5c0,0,0,0,0-0.1c-0.1-1.2-0.2-2.5-0.2-3.8l0-0.6
					c0-0.3-0.2-0.6-0.4-0.7c-0.2-0.1-0.4-0.2-0.6-0.2c-0.1,0-0.1,0-0.2,0c-4.6,1.3-11.6,2.5-19.1,3.3c-6.3,0.6-12.3,0.9-16.9,0.7
					c0,0-0.1,0-0.1,0c-0.2,0-0.5,0.1-0.6,0.3c-0.2,0.2-0.3,0.5-0.2,0.8l0.1,0.8c0.1,1,0.3,2.2,0.4,3.2c0,0,0,0,0,0.1
					c0,0.1,0.6,2.5,4.1,2.8C44.8,103.2,57.3,102,57.9,102z"/>
			</g>
			<g>
				<path class="st18" d="M74.7,92.1c0.1,1.3,0.2,3,0.3,4.3c0,0,0,1.8-2.8,2.6c-2.7,0.8-14.4,1.9-14.4,1.9s-12.9,1.3-15.7,1.1
					c-2.9-0.2-3.3-2-3.3-2c-0.2-1.2-0.4-2.7-0.5-3.9c4.5,0.2,10.5,0,17.1-0.7C63.2,94.6,70.2,93.4,74.7,92.1 M38.3,96.1L38.3,96.1
					 M74.5,90.2c-0.1,0-0.2,0-0.4,0.1c-4.5,1.3-11.4,2.5-19,3.3c-6.2,0.6-12.2,0.9-16.8,0.7c-0.1,0-0.2,0-0.3,0c0,0,0,0,0,0
					c0,0,0,0,0,0c-1.1,0.1-1.8,1.1-1.7,2.1c0,0,0,0.1,0,0.1l0.1,0.7c0.1,1,0.3,2.2,0.4,3.2c0,0,0,0.1,0,0.1c0.3,1.2,1.6,3.3,5,3.5
					c2.9,0.2,14.7-0.9,16-1.1c1.2-0.1,11.9-1.2,14.7-2c3.3-0.9,4.2-3.2,4.2-4.4c0,0,0-0.1,0-0.1c-0.1-1.2-0.2-2.6-0.2-3.8l0-0.6
					c0-0.6-0.3-1.1-0.8-1.5C75.4,90.3,74.9,90.1,74.5,90.2L74.5,90.2z"/>
			</g>
		</g>
		<g>
			<path class="st18" d="M61.3,95.7c0.6-0.1,1.2,0.3,1.5,0.8c0.2,0.3,0.5,0.5,0.9,0.5c0.7,0,1.4,0,2.2-0.1c0.4,0,0.5,0.5,0.2,0.7
				c0,0,0,0-0.1,0c-0.8,0.3-0.5,1.5,0.3,1.5c1.8-0.1,4.2-0.3,7.1-0.7c-0.4,0.2-0.8,0.5-1.4,0.6c-2.7,0.8-14.4,1.9-14.4,1.9
				s-12.9,1.3-15.7,1.1c-2.9-0.2-3.3-2-3.3-2c-0.2-1.2-0.4-2.7-0.5-3.9C45.2,97.2,54.8,96.5,61.3,95.7z"/>
		</g>
		<g>
			<path class="st2" d="M35.2,46.6c0,0,0.8,2.3,3.5,2c2.7-0.2,6.6-2.3,9.3-2.1c2.6,0.2,4.6,4.8,7.3,3.9c2.6-0.9,3.1-3.8,5.1-2.4
				c2,1.3,2.7,3.6,5.8,2.3c3.2-1.3,3.1,18.6,6.6,19.7s5.1-3.1,2.8-8c-2.3-4.9-3.3-11.1-2.9-12.4c0.4-1.3,4-5.8,1.7-10.7
				c-2-4.1-6.1-4.2-6.1-4.2s-3.5-7.8-10-7.4c-6.4,0.4-7.8,5.7-7.8,5.7s-6.1-3.4-11,2.3c0,0-5-3.3-7.7,3c0,0-3.1,3.1-1.2,6.5
				C32,47.4,35.2,46.6,35.2,46.6z"/>
			<path class="st18" d="M72.4,71c-2.1-0.7-3-4.8-4.1-11.5c-0.5-3-1.2-7.4-2-8.2c-2.8,1.1-4.2-0.3-5.4-1.4c-0.4-0.4-0.8-0.8-1.2-1.1
				c-0.4-0.3-0.5-0.3-1.4,0.6c-0.7,0.7-1.5,1.5-2.8,2c-2,0.7-3.6-0.8-5-2.1c-0.9-0.8-1.8-1.7-2.7-1.8c-1.3-0.1-3.1,0.5-4.8,1
				c-1.5,0.5-3,1-4.3,1.1c-2.1,0.2-3.5-1-4.1-2c-1.5,0.1-3.7-0.3-5-2.4c-1.7-3,0-6.1,1.2-7.5c1-2.2,2.4-3.6,4.1-4.1
				c1.7-0.5,3.3,0,4.2,0.4c4-4.1,8.7-3.1,10.7-2.3c0.8-1.7,3-5.1,8.2-5.4c6.1-0.4,9.7,5.6,10.6,7.4c1.3,0.2,4.6,1,6.4,4.7
				c2.1,4.4,0,8.3-1.1,10.4c-0.2,0.4-0.4,0.8-0.5,1c-0.3,0.9,0.5,6.7,2.9,11.7c1.6,3.3,1.5,6.6,0,8.4c-0.6,0.7-1.4,1.1-2.2,1.1
				C73.6,71.2,73,71.2,72.4,71z M51.3,33.3c-0.1,0.3-0.3,0.5-0.6,0.7c-0.3,0.1-0.6,0.1-0.9,0c-0.2-0.1-5.5-3-9.8,2
				c-0.3,0.4-0.9,0.4-1.3,0.2c0,0-1.7-1.1-3.4-0.6c-1.2,0.4-2.2,1.4-2.9,3.2c0,0.1-0.1,0.2-0.2,0.3c-0.1,0.1-2.5,2.7-1,5.3
				c1.1,1.9,3.5,1.4,3.6,1.4c0.5-0.1,1,0.2,1.1,0.6c0,0,0.6,1.6,2.5,1.4c1.1-0.1,2.5-0.5,3.9-1c1.9-0.6,3.9-1.3,5.5-1.1
				c1.5,0.1,2.7,1.2,3.8,2.3c1.3,1.2,2.2,2,3,1.7c0.9-0.3,1.5-0.9,2.1-1.5c0.8-0.8,2-2.1,3.8-0.8c0.6,0.4,1.1,0.9,1.5,1.3
				c1.1,1.1,1.7,1.6,3.4,0.9c0.5-0.2,1-0.2,1.5,0.1c1.5,0.8,2.1,4.1,3,9.7c0.6,3.3,1.6,9.6,2.8,9.9c0.8,0.3,1.5,0.1,1.9-0.4
				c0.8-1,1.1-3.3-0.3-6.3c-2.2-4.7-3.5-11.2-3-13.1c0.1-0.4,0.3-0.8,0.6-1.4c1-1.9,2.8-5.2,1.1-8.7c-1.7-3.5-5.1-3.6-5.3-3.6
				c-0.4,0-0.7-0.2-0.9-0.6c0-0.1-3.3-7.1-9-6.8c-0.1,0-0.3,0-0.4,0C52.6,28.9,51.4,33.1,51.3,33.3z"/>
		</g>
		<g>
			<path class="st18" d="M74.3,66.3c0,0,1.1-0.1,0.4-1.8c0,0,1.5,3.6-0.6,3.8c0,0-1.7,0.6-2.5-4.6c-0.8-5.2-1.6-14.1-4.1-14.8
				c0,0,2.9-0.1,3.3,3.1C71.1,55.1,72.1,66.5,74.3,66.3z"/>
		</g>
		<g>
			<path class="st18" d="M38.9,36.5c0,0-4.4-2.7-6,2.4c0,0-2.5,1.9-1.6,4c0.8,2.1,3.4,2.9,4.7,2.2c0,0,0.6,4.9,6.7,1.5
				c0,0,5.1-2.9,7.6-0.2c0,0-2.8-3.9-6.6-2.2c-3.1,1.4-6.5,3.1-7-0.8c0,0-2.5,1.7-3.4-0.6c-0.7-1.9,0.9-2.8,0.9-2.8S34,36,38.9,36.5
				z"/>
		</g>
		<g>
			<path class="st18" d="M51.1,45.6c0,0,2.3,2.9,3.2,2.8c0.9-0.1,1.8-2.3,5.1-2.6c0,0-2.5-0.5-3.8,0.7C54.3,47.5,52.6,47,51.1,45.6z
				"/>
		</g>
		<g>
			<path class="st18" d="M45.5,32.7c0,0-5.8,2.2-5.4,6.6c0,0,1,3.8,4.7,3.2c0,0-5.6,1.8-6.1-3.9C38.2,34.5,42.1,32.8,45.5,32.7z"/>
		</g>
		<g>
			<path class="st18" d="M58.1,26.9c0,0-7.1,2.6-5.7,6.9c1.4,4.6,8.8,6.6,8.8,6.6s-10.6,0.1-11.3-6.9C49.4,28.2,58.1,26.9,58.1,26.9
				z"/>
		</g>
		<g>
			<path class="st18" d="M72.7,41.2c0,0,0.1,3.8-3.4,4.1c-3.5,0.3-4.7-3.9-10.2-3.4c0,0,4.7,1,7.3,4.7C68.9,50.3,75.1,47,72.7,41.2z
				"/>
		</g>
		<g>
			<path class="st18" d="M47.5,40.8c0,0,1.1,3.6,5,3.1c3.8-0.5,6.6-1.3,9.4,2.4c0,0,1.6,2.4,3.9,2.2c0,0-2.6-1.7-3.1-3.3
				c-0.5-1.6-2.9-3.5-5.9-2.9C53.8,42.9,50.3,44.3,47.5,40.8z"/>
		</g>
	</g>
	<g>
		<g id="XMLID_3_">
			<g>
				<g>
					<g>
						<path class="st2" d="M112.4,140.2c-2.4-1.7-2.3-4.4-2.3-4.4s1.7-3,7.7-1.6c4,0.9,6.8-0.3,8.1-1.2c0,0,0,0,0.1,0
							c0.6-0.4,1-0.8,1-0.8s4.5-4.5,2.4-9c-1.1-2.4-2.9-8.7-0.4-13.1c2.3-0.3,4.7-0.9,6.9-1.7c0,0,9.4-3.9,14.6-2.7l-10.6,19.1
							l10.3,12.8c-5.1-1.2-14.6,2.7-14.6,2.7C126.7,143.8,115.8,142.6,112.4,140.2z"/>
					</g>
				</g>
				<g>
					<g>
						<path class="st18" d="M116.9,135.9c0,0,2.9,7.7,22.7,0.6c0,0-15.6,10-26.6,4.1c0,0-2.7-1.6-2.9-4.1
							C109.9,134,113.4,131.7,116.9,135.9z"/>
						<path class="st18" d="M116.9,130.4c0,0,2.9,7.7,22.7,0.6c0,0-15.6,10-26.6,4.1c0,0-2.7-1.6-2.9-4.1
							C109.9,128.5,113.4,126.3,116.9,130.4z"/>
						<path class="st18" d="M116.9,124.9c0,0,2.9,7.7,22.7,0.6c0,0-15.6,10-26.6,4.1c0,0-2.7-1.6-2.9-4.1
							C109.9,123,113.4,120.8,116.9,124.9z"/>
						<path class="st18" d="M116.9,119.5c0,0,2.9,7.7,22.7,0.6c0,0-15.6,10-26.6,4.1c0,0-2.7-1.6-2.9-4.1
							C109.9,117.6,113.4,115.3,116.9,119.5z"/>
						<path class="st18" d="M116.9,114c0,0,2.9,7.7,22.7,0.6c0,0-15.6,10-26.6,4.1c0,0-2.7-1.6-2.9-4.1
							C109.9,112.1,113.4,109.9,116.9,114z"/>
						<path class="st18" d="M116.9,108.5c0,0,2.9,7.7,22.7,0.6c0,0-15.6,10-26.6,4.1c0,0-2.7-1.6-2.9-4.1
							C109.9,106.6,113.4,104.4,116.9,108.5z"/>
					</g>
					<path class="st18" d="M113.4,133.5c-0.3-0.4-0.6-0.7-0.9-0.9v6.9c10.7,3,23.9-4.8,23.9-4.8
						C116.8,140.7,113.4,133.5,113.4,133.5z"/>
					<path class="st18" d="M113.4,128.4c-0.3-0.4-0.6-0.7-0.9-0.9v6.9c10.7,3,23.9-4.8,23.9-4.8
						C116.8,135.6,113.4,128.4,113.4,128.4z"/>
					<path class="st18" d="M113.4,122.9c-0.3-0.4-0.6-0.7-0.9-0.9v6.9c10.7,3,23.9-4.8,23.9-4.8
						C116.8,130.1,113.4,122.9,113.4,122.9z"/>
					<path class="st18" d="M113.4,117.5c-0.3-0.4-0.6-0.7-0.9-0.9v6.9c10.7,3,23.9-4.8,23.9-4.8
						C116.8,124.6,113.4,117.5,113.4,117.5z"/>
					<path class="st18" d="M113.4,111.7c-0.3-0.4-0.6-0.7-0.9-0.9v6.9c10.7,3,23.9-4.8,23.9-4.8
						C116.8,118.9,113.4,111.7,113.4,111.7z"/>
				</g>
				<g>
					<g>
						<path class="st2" d="M12.2,124.8L1.5,105.8c5.1-1.2,14.6,2.7,14.6,2.7c2.2,0.8,4.6,1.4,6.9,1.7c2.6,4.4,0.8,10.6-0.4,13.1
							c-2.1,4.5,2.4,9,2.4,9s0.3,0.3,1,0.8c0,0,0.1,0,0.1,0c1.4,0.9,4.1,2.1,8.1,1.2c6-1.4,7.7,1.6,7.7,1.6s0.2,2.7-2.3,4.4
							c-3.3,2.3-14.2,3.5-23.2,0.1c0,0-9.4-3.9-14.6-2.7L12.2,124.8z"/>
					</g>
				</g>
				<g>
					<g>
						<path class="st18" d="M35.1,135.9c0,0-2.9,7.7-22.7,0.6c0,0,15.6,10,26.6,4.1c0,0,2.7-1.6,2.9-4.1
							C42.1,134,38.6,131.7,35.1,135.9z"/>
						<path class="st18" d="M35.1,130.4c0,0-2.9,7.7-22.7,0.6c0,0,15.6,10,26.6,4.1c0,0,2.7-1.6,2.9-4.1
							C42.1,128.5,38.6,126.3,35.1,130.4z"/>
						<path class="st18" d="M35.1,124.9c0,0-2.9,7.7-22.7,0.6c0,0,15.6,10,26.6,4.1c0,0,2.7-1.6,2.9-4.1
							C42.1,123,38.6,120.8,35.1,124.9z"/>
						<path class="st18" d="M35.1,119.5c0,0-2.9,7.7-22.7,0.6c0,0,15.6,10,26.6,4.1c0,0,2.7-1.6,2.9-4.1
							C42.1,117.6,38.6,115.3,35.1,119.5z"/>
						<path class="st18" d="M35.1,114c0,0-2.9,7.7-22.7,0.6c0,0,15.6,10,26.6,4.1c0,0,2.7-1.6,2.9-4.1
							C42.1,112.1,38.6,109.9,35.1,114z"/>
						<path class="st18" d="M35.1,108.5c0,0-2.9,7.7-22.7,0.6c0,0,15.6,10,26.6,4.1c0,0,2.7-1.6,2.9-4.1
							C42.1,106.6,38.6,104.4,35.1,108.5z"/>
					</g>
					<path class="st18" d="M38.6,133.5c0.3-0.4,0.6-0.7,0.9-0.9v6.9c-10.7,3-23.9-4.8-23.9-4.8C35.2,140.7,38.6,133.5,38.6,133.5z"
						/>
					<path class="st18" d="M38.6,128.4c0.3-0.4,0.6-0.7,0.9-0.9v6.9c-10.7,3-23.9-4.8-23.9-4.8C35.2,135.6,38.6,128.4,38.6,128.4z"
						/>
					<path class="st18" d="M38.6,122.9c0.3-0.4,0.6-0.7,0.9-0.9v6.9c-10.7,3-23.9-4.8-23.9-4.8C35.2,130.1,38.6,122.9,38.6,122.9z"
						/>
					<path class="st18" d="M38.6,117.5c0.3-0.4,0.6-0.7,0.9-0.9v6.9c-10.7,3-23.9-4.8-23.9-4.8C35.2,124.6,38.6,117.5,38.6,117.5z"
						/>
					<path class="st18" d="M38.6,111.7c0.3-0.4,0.6-0.7,0.9-0.9v6.9c-10.7,3-23.9-4.8-23.9-4.8C35.2,118.9,38.6,111.7,38.6,111.7z"
						/>
				</g>
				<g>
					<g>
						<path class="st2" d="M129,110.2c-2.5,4.4-0.8,10.6,0.4,13.1c2.1,4.5-2.4,9-2.4,9s-0.3,0.3-1,0.8c0.5-0.4,4-3.2-2.1-6.5
							c-4.3-2.4-9.4-3.8-13.8-4.6c-6.2-1.2-11.2-1.3-11.2-1.3H53.1c0,0-5,0.1-11.2,1.3c-4.4,0.9-9.4,2.3-13.8,4.6
							c-6.1,3.4-2.7,6.1-2.1,6.5c-0.6-0.4-1-0.8-1-0.8s-4.5-4.5-2.4-9c1.2-2.4,2.9-8.7,0.4-13.1c-0.4-0.8-1-1.5-1.8-2.1
							c-2.8-2.4-4.8-8.4,5.7-11.7c10.4-3.3,26.2-4,26.2-4h45.8c0,0,15.7,0.7,26.2,4c10.4,3.3,8.5,9.3,5.7,11.7
							C130,108.7,129.5,109.4,129,110.2z"/>
					</g>
				</g>
				<g>
					<g>
						<path class="st2" d="M26,133c-0.5-0.4-4-3.2,2.1-6.5c4.3-2.4,9.4-3.8,13.8-4.6v0v14c0,0-1.7-3-7.7-1.6
							C30.2,135.2,27.4,134,26,133C26,133.1,26,133,26,133z"/>
					</g>
				</g>
				<g>
					<g>
						<path class="st2" d="M110.2,121.9H41.9v0c6.2-1.2,11.2-1.3,11.2-1.3h45.8C98.9,120.5,103.9,120.6,110.2,121.9L110.2,121.9z"/>
					</g>
				</g>
				<g>
					<g>
						<path class="st2" d="M110.2,121.9L110.2,121.9c4.4,0.8,9.4,2.3,13.8,4.6c6.1,3.4,2.7,6.1,2.1,6.5c0,0-0.1,0-0.1,0
							c-1.4,0.9-4.1,2.1-8.1,1.2c-6-1.4-7.7,1.6-7.7,1.6V121.9z"/>
					</g>
				</g>
			</g>
			<g>
				<g>
					<g>
						<path class="st18" d="M3.8,104c5.5,0,12.6,2.9,12.9,3c2,0.7,4.2,1.3,6.5,1.6c0.8,0.1,1.4,0.9,1.3,1.8
							c-0.1,0.8-0.9,1.4-1.8,1.3c-2.6-0.4-5-1-7.2-1.8c-2.1-0.9-7.6-2.7-11.5-2.8l9.5,17c0.3,0.6,0.2,1.2-0.1,1.7l-8.2,10.1
							c5.3,0.3,11.4,2.9,11.8,3c8.7,3.3,19.1,1.9,21.7,0c1.7-1.2,1.6-3,1.6-3c0-0.8,0.6-1.6,1.5-1.6c0.9-0.1,1.6,0.6,1.6,1.4
							c0,0.1,0.2,3.6-2.9,5.8c-3.6,2.5-15.1,3.9-24.6,0.3c-2.5-1-9.9-3.5-13.7-2.6c-0.6,0.1-1.3-0.1-1.7-0.7
							c-0.4-0.6-0.3-1.3,0.1-1.8l9.7-12L0.2,106.5c-0.2-0.4-0.3-0.9-0.1-1.4c0.2-0.4,0.6-0.8,1.1-0.9C2,104.1,2.9,104,3.8,104z"/>
					</g>
				</g>
				<g>
					<g>
						<path class="st18" d="M41.9,120.3c0.9,0,1.5,0.7,1.5,1.5v14c0,0.7-0.5,1.3-1.2,1.5c-0.7,0.2-1.4-0.1-1.7-0.7
							c0,0-1.4-1.9-6-0.9c-4.6,1.1-7.8-0.4-9.3-1.4c-0.7-0.5-0.9-1.4-0.5-2.1c0.5-0.7,1.4-0.9,2.1-0.5c1.1,0.7,3.4,1.8,6.9,1
							c2.9-0.7,5-0.4,6.5,0.2v-11C40.3,121,41,120.3,41.9,120.3z"/>
					</g>
				</g>
				<g>
					<g>
						<path class="st18" d="M98.9,90.9c0.7,0,16.1,0.8,26.7,4.1c6.5,2.1,8.4,5.2,8.9,7.4c0.6,3-1.1,5.6-2.7,6.9
							c-0.6,0.5-1,1-1.4,1.7c-2.3,3.9-0.4,9.7,0.4,11.7c2.5,5.4-2.5,10.5-2.7,10.7c-0.1,0.1-0.5,0.5-1.2,1c-0.7,0.5-1.7,0.3-2.1-0.4
							c-0.5-0.7-0.3-1.7,0.4-2.1c0.5-0.3,0.7-0.6,0.7-0.6c0,0,3.7-3.8,2.1-7.2c-1.4-2.9-3.2-9.6-0.3-14.5c0.6-1,1.3-1.8,2.1-2.5
							c1-0.8,2-2.3,1.6-3.9c-0.4-2-2.8-3.8-6.8-5.1C114.5,94.7,99,94,98.8,94l-45.7,0c-0.1,0-15.6,0.8-25.7,4c-4,1.3-6.4,3-6.8,5.1
							c-0.3,1.6,0.7,3.1,1.6,3.9c0.8,0.7,1.5,1.6,2.1,2.5c2.9,4.9,1,11.7-0.3,14.5c-1.6,3.5,2.1,7.2,2.1,7.2c0,0,0.3,0.3,0.7,0.6
							c0.7,0.5,0.9,1.4,0.4,2.1c-0.5,0.7-1.4,0.9-2.1,0.4c-0.7-0.5-1.2-0.9-1.2-1c-0.2-0.2-5.2-5.3-2.7-10.7
							c1.3-2.6,2.5-8.2,0.4-11.7c-0.4-0.6-0.9-1.2-1.4-1.7c-1.6-1.3-3.3-4-2.7-6.9c0.4-2.2,2.3-5.3,8.9-7.4
							C37,91.7,52.4,90.9,53,90.9L98.9,90.9z"/>
					</g>
				</g>
				<g>
					<g>
						<path class="st18" d="M110.2,120.3c0.9,0,1.5,0.7,1.5,1.5v11c1.5-0.6,3.6-0.8,6.5-0.2c3.5,0.8,5.9-0.3,6.9-1
							c0.7-0.5,1.7-0.3,2.1,0.5c0.5,0.7,0.3,1.7-0.5,2.1c-1.5,1-4.7,2.4-9.3,1.4c-4.6-1.1-6,0.8-6,0.9c-0.3,0.6-1,0.9-1.7,0.7
							c-0.7-0.2-1.1-0.8-1.1-1.5v-14C108.6,121,109.3,120.3,110.2,120.3z"/>
					</g>
				</g>
				<g>
					<g>
						<path class="st18" d="M98.9,119c0.2,0,5.2,0.1,11.5,1.3c5.6,1.1,10.4,2.7,14.2,4.8c2.8,1.5,4.3,3.3,4.4,5.1
							c0.1,2.2-1.6,3.6-2.1,4c0,0-0.1,0-0.1,0.1c-0.6,0.4-1.4,0.4-2-0.2c-0.6-0.6-0.6-1.6,0-2.2c0.1-0.1,0.2-0.1,0.3-0.2
							c0.3-0.2,0.8-0.8,0.8-1.3c0-0.3-0.3-1.3-2.8-2.6c-3.6-2-8-3.5-13.3-4.5c-6-1.2-10.9-1.3-11-1.3H53.1c0,0-4.9,0.1-10.9,1.3
							c-5.3,1-9.8,2.5-13.3,4.5c-2.5,1.4-2.8,2.4-2.8,2.6c0,0.5,0.5,1,0.8,1.3c0.1,0.1,0.2,0.1,0.3,0.2c0.6,0.6,0.6,1.6,0,2.2
							c-0.5,0.5-1.4,0.6-2,0.2c0,0-0.1,0-0.1-0.1c-0.5-0.4-2.2-1.8-2.1-4c0.1-1.9,1.6-3.6,4.4-5.1c3.8-2.1,8.6-3.7,14.2-4.8
							c6.3-1.2,11.3-1.3,11.5-1.3H98.9z"/>
					</g>
				</g>
				<g>
					<g>
						<path class="st18" d="M148.2,104c0.9,0,1.8,0.1,2.6,0.3c0.5,0.1,0.9,0.4,1.1,0.9c0.2,0.4,0.2,1-0.1,1.4l-10.1,18.1l9.7,12
							c0.4,0.5,0.5,1.2,0.1,1.8c-0.4,0.6-1,0.8-1.7,0.7c-3.8-0.9-11.1,1.6-13.6,2.6c-9.6,3.6-21.1,2.2-24.7-0.3
							c-3.1-2.2-2.9-5.6-2.9-5.8c0.1-0.9,0.8-1.5,1.6-1.4c0.9,0.1,1.5,0.8,1.4,1.6c0,0.1-0.1,1.8,1.6,3c2.7,1.9,13,3.3,21.8,0
							c0.3-0.1,6.4-2.6,11.7-3l-8.2-10.1c-0.4-0.5-0.5-1.2-0.1-1.7l9.5-17c-4,0.1-9.4,1.9-11.5,2.8c-2.3,0.8-4.7,1.5-7.2,1.8
							c-1,0.2-1.8-0.6-1.8-1.5c0-0.8,0.6-1.4,1.3-1.5c0,0,0.1,0,0.1,0v0c2.3-0.3,4.5-0.9,6.6-1.6C135.7,106.9,142.7,104,148.2,104z"
							/>
					</g>
				</g>
			</g>
		</g>
		<g>
			<path class="st18" d="M46.3,116.1c-0.1-1-0.2-1.9-0.3-2.9c0.4,0,0.9-0.1,1.3-0.1c-0.3-3.2-0.7-6.4-1-9.7c-0.4,0-0.9,0.1-1.3,0.1
				c-0.1-0.9-0.2-1.9-0.3-2.8c2.9-0.3,5.8-0.6,8.7-0.8c3.9-0.3,5.8,1,6,3.4c0.1,1.9-0.4,2.8-2,3.6c1.7,0.3,3.1,1.4,3.2,3.6
				c0.2,3.1-1.5,4.6-5.8,4.9C51.9,115.5,49.1,115.8,46.3,116.1z M51.1,103c0.1,1.1,0.2,2.2,0.3,3.3c0.5,0,0.9-0.1,1.4-0.1
				c1.2-0.1,1.5-0.8,1.4-1.8c-0.1-1-0.8-1.6-1.7-1.5C52.1,102.9,51.6,103,51.1,103z M55.4,110.4c-0.1-1.1-0.8-1.9-2-1.8
				c-0.6,0-1.2,0.1-1.7,0.1c0.1,1.3,0.2,2.6,0.3,3.8c0.6-0.1,1.2-0.1,1.8-0.2C54.7,112.4,55.5,111.6,55.4,110.4z"/>
			<path class="st18" d="M60.7,99.4c4.7-0.3,9.4-0.4,14.1-0.4c0,1.6,0,3.3,0,4.9c-1.3,0-2.7,0-4,0c0-0.7,0-1.3,0-2
				c-1.2,0-2.5,0.1-3.7,0.1c0,1,0.1,2,0.1,3c1.5,0,2.9-0.1,4.4-0.1c0,1,0,2,0,2.9c-1.4,0-2.9,0.1-4.3,0.1c0,1.2,0.1,2.4,0.1,3.6
				c1.2,0,2.4-0.1,3.6-0.1c0-0.7,0-1.4,0-2.1c1.3,0,2.6,0,3.9,0c0,1.7,0,3.3,0,5c-4.5,0-8.9,0.2-13.4,0.4c-0.1-1-0.1-2-0.2-2.9
				c0.5,0,0.9,0,1.4-0.1c-0.2-3.2-0.3-6.4-0.5-9.6c-0.5,0-1,0-1.5,0.1C60.8,101.3,60.8,100.4,60.7,99.4z"/>
			<path class="st18" d="M76,99c4.7,0,9.4,0.1,14.1,0.3c-0.1,1.6-0.2,3.3-0.2,4.9c-1.3-0.1-2.7-0.1-4-0.2c0-0.7,0-1.3,0.1-2
				c-1.2,0-2.5-0.1-3.7-0.1c0,1,0,2-0.1,3.1c1.5,0,2.9,0.1,4.4,0.1c0,1-0.1,2-0.1,2.9c-1.4-0.1-2.9-0.1-4.3-0.1
				c0,1.2-0.1,2.4-0.1,3.6c1.2,0,2.4,0.1,3.6,0.1c0-0.7,0-1.4,0.1-2.1c1.3,0,2.6,0.1,3.9,0.2c-0.1,1.7-0.2,3.3-0.2,5
				c-4.5-0.2-8.9-0.3-13.4-0.3c0-1,0-2,0-2.9c0.5,0,0.9,0,1.4,0c0-3.2,0-6.4,0-9.6c-0.5,0-1,0-1.5,0C76,100.9,76,100,76,99z"/>
			<path class="st18" d="M91.3,99.4c2.5,0.1,5.1,0.3,7.6,0.5c5.4,0.4,6.3,2.6,6,5.1c-0.2,1.7-1.7,2.8-3.6,2.9
				c1.6,0.4,2.8,1.8,2.7,3.4c-0.1,0.9,0,1.5,0.4,1.6c0.3,0,0.5-0.2,0.6-0.7c0-0.2,0.1-0.5,0.1-0.7c0.5,0.1,1,0.1,1.5,0.2
				c0,0.4-0.1,0.8-0.1,1.2c-0.2,1.8-1.2,3.4-3.6,3.2c-2.9-0.3-4.2-1.9-3.9-4.5c0.2-2,0-2.5-2.1-2.7c-0.1,1.1-0.2,2.3-0.3,3.4
				c0.5,0,0.9,0.1,1.4,0.1c-0.1,1-0.2,1.9-0.2,2.9c-2.4-0.2-4.8-0.3-7.1-0.5c0.1-1,0.1-1.9,0.2-2.9c0.4,0,0.8,0,1.3,0.1
				c0.2-3.2,0.4-6.4,0.6-9.6c-0.4,0-0.9,0-1.3-0.1C91.2,101.3,91.2,100.3,91.3,99.4z M97.2,102.6c-0.1,1.2-0.2,2.5-0.3,3.7
				c0.3,0,0.7,0.1,1,0.1c1.3,0.1,2.2-0.4,2.3-1.6c0.1-1.3-0.6-2-1.9-2.1C98,102.7,97.6,102.7,97.2,102.6z"/>
		</g>
		<g>
			<circle class="st18" cx="111" cy="109.3" r="2.6"/>
			<circle class="st18" cx="41" cy="109.3" r="2.6"/>
		</g>
		<g>
			<path class="st18" d="M19.4,106c0,0,2.9-6.6,13.9-6.9c0,0-9.9,2.5-12.7,8.9C20.6,107.9,19.1,106.5,19.4,106z"/>
			<path class="st18" d="M21.2,108.6c0,0,3.1-6.5,14.1-6.6c0,0-10,2.3-12.9,8.5C22.4,110.5,21,109,21.2,108.6z"/>
			<path class="st18" d="M22.7,111.9c0,0,3.4-6.3,14.4-5.8c0,0-10.1,1.7-13.4,7.8C23.7,113.9,22.4,112.4,22.7,111.9z"/>
			<path class="st18" d="M23,115.9c0,0,3.4-6.3,14.4-5.8c0,0-10.1,1.7-13.4,7.8C24.1,117.9,22.7,116.3,23,115.9z"/>
			<path class="st18" d="M22.7,120.4c0,0,3.4-6.3,14.4-5.8c0,0-10.1,1.7-13.4,7.8C23.8,122.4,22.5,120.9,22.7,120.4z"/>
			<path class="st18" d="M22.1,125c0,0,3.4-6.3,14.4-5.8c0,0-10.1,1.7-13.4,7.8C23.1,127,21.8,125.4,22.1,125z"/>
		</g>
		<g>
			<path class="st18" d="M132.5,106c0,0-2.9-6.6-13.9-6.9c0,0,9.9,2.5,12.7,8.9C131.3,107.9,132.7,106.5,132.5,106z"/>
			<path class="st18" d="M130.6,108.6c0,0-3.1-6.5-14.1-6.6c0,0,10,2.3,12.9,8.5C129.5,110.5,130.9,109,130.6,108.6z"/>
			<path class="st18" d="M129.2,111.9c0,0-3.4-6.3-14.4-5.8c0,0,10.1,1.7,13.4,7.8C128.1,113.9,129.5,112.4,129.2,111.9z"/>
			<path class="st18" d="M128.8,115.9c0,0-3.4-6.3-14.4-5.8c0,0,10.1,1.7,13.4,7.8C127.8,117.9,129.1,116.3,128.8,115.9z"/>
			<path class="st18" d="M129.1,120.4c0,0-3.4-6.3-14.4-5.8c0,0,10.1,1.7,13.4,7.8C128.1,122.4,129.4,120.9,129.1,120.4z"/>
			<path class="st18" d="M129.8,125c0,0-3.4-6.3-14.4-5.8c0,0,10.1,1.7,13.4,7.8C128.8,127,130.1,125.4,129.8,125z"/>
		</g>
		<path class="st18" d="M27.3,125.8c0,0,3.1,3,9.5,1.8c0,0-5.6,2.1-11,0.3L27.3,125.8z"/>
		<path class="st18" d="M25.3,128.8c0,0,4.1,3.8,10.5,2.6c0,0-5.6,2.1-11,0.3L25.3,128.8z"/>
		<path class="st18" d="M26.3,127c0,0,4.1,3.8,10.5,2.6c0,0-5.6,2.1-11,0.3L26.3,127z"/>
		<path class="st18" d="M28,124.9c0,0,3.3,1.8,8.7,1.1c0,0-5.6,2.1-11,0.3L28,124.9z"/>
		<path class="st18" d="M124.7,125.8c0,0-3.1,3-9.5,1.8c0,0,5.6,2.1,11,0.3L124.7,125.8z"/>
		<path class="st18" d="M126.7,128.8c0,0-4.1,3.8-10.5,2.6c0,0,5.6,2.1,11,0.3L126.7,128.8z"/>
		<path class="st18" d="M125.7,127c0,0-4.1,3.8-10.5,2.6c0,0,5.6,2.1,11,0.3L125.7,127z"/>
		<path class="st18" d="M124,124.9c0,0-3.3,1.8-8.7,1.1c0,0,5.6,2.1,11,0.3L124,124.9z"/>
	</g>
	<g>
		<path class="st18" d="M47.7,144.8c0-1.9,0-2.3,0-2.7c0-0.4-0.1-0.6-0.5-0.7c-0.1,0-0.3,0-0.5,0c-0.1,0-0.2,0-0.2-0.1
			s0.1-0.1,0.3-0.1c0.7,0,1.5,0,1.8,0c0.5,0,1.2,0,1.8,0c1.6,0,2.1,0.5,2.3,0.7c0.3,0.3,0.6,0.8,0.6,1.5c0,1.8-1.3,3.1-3.1,3.1
			c-0.1,0-0.2,0-0.3,0c-0.1,0-0.2,0-0.2-0.1c0-0.1,0.1-0.1,0.4-0.1c0.7,0,1.7-0.8,1.7-2.1c0-0.4,0-1.3-0.7-1.9
			c-0.5-0.4-1-0.5-1.3-0.5c-0.2,0-0.4,0-0.5,0.1c-0.1,0-0.1,0.1-0.1,0.2v5.1c0,1.2,0,2.2,0.1,2.7c0,0.4,0.1,0.6,0.5,0.7
			c0.2,0,0.5,0.1,0.6,0.1c0.1,0,0.2,0,0.2,0.1c0,0.1-0.1,0.1-0.2,0.1c-0.8,0-1.6,0-2,0c-0.3,0-1.1,0-1.6,0c-0.2,0-0.3,0-0.3-0.1
			c0-0.1,0.1-0.1,0.2-0.1c0.2,0,0.3,0,0.5-0.1c0.3-0.1,0.3-0.3,0.4-0.7c0.1-0.5,0.1-1.5,0.1-2.7V144.8z"/>
		<path class="st18" d="M55.7,145.7c0-1.6,0-1.9,0-2.3c0-0.4-0.1-0.5-0.5-0.6c-0.1,0-0.3,0-0.4,0c-0.1,0-0.2,0-0.2-0.1
			s0.1-0.1,0.3-0.1c0.6,0,1.3,0,1.5,0c0.4,0,1.4,0,1.7,0c0.7,0,1.5,0.1,2.1,0.5c0.3,0.2,0.8,0.8,0.8,1.5c0,0.8-0.5,1.5-1.5,2.4
			c1,1.2,1.8,2.2,2.4,2.9c0.6,0.6,1,0.7,1.2,0.7c0.1,0,0.2,0,0.3,0c0.1,0,0.1,0.1,0.1,0.1c0,0.1-0.1,0.1-0.2,0.1h-1.1
			c-0.6,0-0.9-0.1-1.2-0.2c-0.5-0.2-0.9-0.7-1.5-1.6c-0.4-0.6-0.9-1.3-1-1.5c-0.1-0.1-0.1-0.1-0.2-0.1l-1,0c0,0-0.1,0-0.1,0.1v0.2
			c0,1,0,1.8,0.1,2.3c0,0.3,0.1,0.5,0.4,0.6c0.2,0,0.4,0,0.5,0c0.1,0,0.1,0.1,0.1,0.1c0,0.1-0.1,0.1-0.2,0.1c-0.6,0-1.6,0-1.7,0
			c-0.2,0-0.9,0-1.4,0c-0.1,0-0.2,0-0.2-0.1c0-0.1,0-0.1,0.2-0.1c0.2,0,0.3,0,0.4,0c0.2-0.1,0.3-0.3,0.3-0.6c0-0.5,0-1.3,0-2.3
			V145.7z M57.1,146.5c0,0.1,0,0.2,0.1,0.2c0.2,0.1,0.6,0.1,0.8,0.1c0.4,0,0.6,0,0.8-0.2c0.3-0.2,0.7-0.7,0.7-1.6
			c0-1.5-1-1.9-1.7-1.9c-0.3,0-0.5,0-0.7,0c-0.1,0-0.1,0.1-0.1,0.2V146.5z"/>
		<path class="st18" d="M64.3,145.7c0-1.6,0-1.9,0-2.3c0-0.4-0.1-0.5-0.5-0.6c-0.1,0-0.3,0-0.4,0c-0.1,0-0.2,0-0.2-0.1
			s0.1-0.1,0.3-0.1c0.6,0,1.3,0,1.6,0c0.4,0,2.8,0,3,0c0.2,0,0.4-0.1,0.5-0.1c0.1,0,0.1-0.1,0.2-0.1c0.1,0,0.1,0.1,0.1,0.1
			c0,0.1-0.1,0.2-0.1,0.7c0,0.1,0,0.6-0.1,0.7c0,0.1,0,0.2-0.1,0.2c-0.1,0-0.1-0.1-0.1-0.1c0-0.1,0-0.3-0.1-0.4
			c-0.1-0.2-0.2-0.3-0.7-0.4c-0.2,0-1.5-0.1-1.7-0.1c-0.1,0-0.1,0-0.1,0.1v2.7c0,0.1,0,0.1,0.1,0.1c0.3,0,1.7,0,1.9,0
			c0.3,0,0.4-0.1,0.5-0.2c0.1-0.1,0.1-0.1,0.2-0.1c0,0,0.1,0.1,0.1,0.1s0,0.2-0.1,0.8c0,0.2-0.1,0.6-0.1,0.7c0,0.1,0,0.2-0.1,0.2
			c-0.1,0-0.1,0-0.1-0.1c0-0.1,0-0.3,0-0.4c-0.1-0.2-0.2-0.4-0.6-0.4c-0.2,0-1.5-0.1-1.7-0.1c-0.1,0-0.1,0.1-0.1,0.1v0.9
			c0,0.4,0,1.3,0,1.6c0,0.7,0.4,0.9,1.5,0.9c0.3,0,0.8,0,1-0.1c0.3-0.1,0.4-0.4,0.5-0.8c0-0.1,0.1-0.2,0.1-0.2
			c0.1,0,0.1,0.1,0.1,0.3c0,0.2-0.1,1-0.2,1.2c-0.1,0.3-0.2,0.3-0.6,0.3c-0.8,0-1.5,0-2,0c-0.5,0-1,0-1.3,0c-0.1,0-0.4,0-0.6,0
			c-0.3,0-0.5,0-0.8,0c-0.1,0-0.2,0-0.2-0.1c0-0.1,0-0.1,0.2-0.1c0.2,0,0.3,0,0.4,0c0.2-0.1,0.3-0.3,0.3-0.6c0-0.5,0-1.3,0-2.3
			V145.7z"/>
		<path class="st18" d="M72,142.6c0-0.2,0.1-0.3,0.2-0.3c0.1,0,0.2,0.1,0.3,0.3l3,6l3-6c0.1-0.2,0.2-0.3,0.3-0.3
			c0.1,0,0.2,0.1,0.3,0.3l1,6.6c0.1,0.7,0.2,1,0.5,1.1c0.3,0.1,0.5,0.1,0.6,0.1c0.1,0,0.2,0,0.2,0.1c0,0.1-0.1,0.1-0.3,0.1
			c-0.3,0-1.9,0-2.3-0.1c-0.3,0-0.3-0.1-0.3-0.1c0-0.1,0.1-0.1,0.1-0.1c0.1,0,0.1-0.2,0.1-0.5l-0.6-4.7h0l-2.4,4.8
			c-0.3,0.5-0.3,0.6-0.4,0.6c-0.1,0-0.3-0.2-0.4-0.5c-0.3-0.5-1.1-2.1-1.3-2.5c-0.1-0.2-0.7-1.5-1.1-2.3h0l-0.5,4.2
			c0,0.2,0,0.3,0,0.5c0,0.2,0.2,0.3,0.3,0.3c0.2,0,0.3,0.1,0.4,0.1s0.2,0.1,0.2,0.1c0,0.1-0.1,0.1-0.3,0.1c-0.5,0-1,0-1.2,0
			c-0.2,0-0.7,0-1.1,0c-0.1,0-0.2,0-0.2-0.1c0-0.1,0.1-0.1,0.2-0.1c0.1,0,0.2,0,0.3,0c0.3,0,0.4-0.5,0.5-0.8L72,142.6z"/>
		<path class="st18" d="M83.2,145.7c0-1.6,0-1.9,0-2.3c0-0.4-0.1-0.5-0.4-0.6c-0.1,0-0.3-0.1-0.4-0.1c-0.1,0-0.2,0-0.2-0.1
			c0-0.1,0.1-0.1,0.3-0.1c0.4,0,1.2,0,1.5,0c0.3,0,1,0,1.4,0c0.1,0,0.2,0,0.2,0.1c0,0.1-0.1,0.1-0.2,0.1s-0.2,0-0.3,0
			c-0.3,0.1-0.4,0.2-0.4,0.6c0,0.3,0,0.6,0,2.3v1.9c0,1,0,1.9,0.1,2.4c0,0.3,0.1,0.5,0.4,0.5c0.2,0,0.4,0,0.6,0
			c0.1,0,0.2,0.1,0.2,0.1c0,0.1-0.1,0.1-0.2,0.1c-0.7,0-1.5,0-1.8,0c-0.3,0-1,0-1.4,0c-0.1,0-0.2,0-0.2-0.1c0-0.1,0-0.1,0.2-0.1
			c0.2,0,0.3,0,0.4,0c0.2-0.1,0.3-0.2,0.3-0.5c0-0.4,0-1.3,0-2.3V145.7z"/>
		<path class="st18" d="M87.8,145.7c0-1.6,0-1.9,0-2.3c0-0.4-0.1-0.5-0.5-0.6c-0.1,0-0.3,0-0.4,0c-0.1,0-0.2,0-0.2-0.1
			s0.1-0.1,0.2-0.1c0.6,0,1.3,0,1.7,0c0.3,0,1,0,1.4,0c0.2,0,0.2,0,0.2,0.1s-0.1,0.1-0.2,0.1c-0.1,0-0.2,0-0.3,0
			c-0.3,0.1-0.4,0.2-0.4,0.6c0,0.3,0,0.6,0,2.3v1.5c0,1.6,0.3,2.2,0.8,2.6c0.5,0.4,1,0.4,1.4,0.4c0.5,0,1-0.1,1.5-0.6
			c0.6-0.6,0.6-1.5,0.6-2.6v-1.4c0-1.6,0-1.9,0-2.3c0-0.4-0.1-0.5-0.5-0.6c-0.1,0-0.3,0-0.4,0s-0.2,0-0.2-0.1s0.1-0.1,0.2-0.1
			c0.6,0,1.3,0,1.3,0c0.1,0,0.9,0,1.3,0c0.2,0,0.2,0,0.2,0.1s-0.1,0.1-0.2,0.1c-0.1,0-0.2,0-0.3,0c-0.3,0.1-0.4,0.2-0.4,0.6
			c0,0.3,0,0.6,0,2.3v1.2c0,1.2-0.1,2.5-1.1,3.3c-0.8,0.7-1.6,0.8-2.3,0.8c-0.6,0-1.7,0-2.5-0.7c-0.6-0.5-1-1.3-1-2.9V145.7z"/>
		<path class="st18" d="M98.1,142.6c0-0.2,0.1-0.3,0.2-0.3c0.1,0,0.2,0.1,0.3,0.3l3,6l3-6c0.1-0.2,0.2-0.3,0.3-0.3
			c0.1,0,0.2,0.1,0.3,0.3l1,6.6c0.1,0.7,0.2,1,0.5,1.1c0.3,0.1,0.5,0.1,0.6,0.1c0.1,0,0.2,0,0.2,0.1c0,0.1-0.1,0.1-0.3,0.1
			c-0.3,0-1.9,0-2.3-0.1c-0.3,0-0.3-0.1-0.3-0.1c0-0.1,0.1-0.1,0.1-0.1c0.1,0,0.1-0.2,0.1-0.5l-0.6-4.7h0l-2.4,4.8
			c-0.3,0.5-0.3,0.6-0.4,0.6c-0.1,0-0.3-0.2-0.4-0.5c-0.3-0.5-1.1-2.1-1.3-2.5c-0.1-0.2-0.7-1.5-1.1-2.3h0l-0.5,4.2
			c0,0.2,0,0.3,0,0.5c0,0.2,0.2,0.3,0.3,0.3c0.2,0,0.3,0.1,0.4,0.1s0.2,0.1,0.2,0.1c0,0.1-0.1,0.1-0.3,0.1c-0.5,0-1,0-1.2,0
			c-0.2,0-0.7,0-1.1,0c-0.1,0-0.2,0-0.2-0.1c0-0.1,0.1-0.1,0.2-0.1c0.1,0,0.2,0,0.3,0c0.3,0,0.4-0.5,0.5-0.8L98.1,142.6z"/>
		<path class="st18" d="M61.7,164.7c-1.2-1.1-1.6-2.5-1.6-3.7c0-0.9,0.3-2.4,1.5-3.5c0.9-0.8,2.1-1.3,4-1.3c0.8,0,1.2,0.1,1.8,0.1
			c0.5,0.1,0.9,0.2,1.3,0.2c0.1,0,0.2,0.1,0.2,0.2c0,0.1,0,0.3-0.1,0.7c0,0.4,0,1.1,0,1.4c0,0.2,0,0.3-0.2,0.3
			c-0.1,0-0.1-0.1-0.1-0.3c0-0.4-0.2-0.8-0.5-1.2c-0.4-0.4-1.4-0.8-2.6-0.8c-1.1,0-1.8,0.3-2.4,0.8c-0.9,0.9-1.2,2.1-1.2,3.3
			c0,3,2.3,4.5,4,4.5c1.1,0,1.8-0.1,2.3-0.7c0.2-0.2,0.4-0.6,0.4-0.8c0-0.2,0.1-0.3,0.2-0.3c0.1,0,0.1,0.1,0.1,0.2
			c0,0.2-0.2,1.3-0.3,1.7c-0.1,0.2-0.1,0.3-0.3,0.4c-0.5,0.2-1.5,0.3-2.3,0.3C64.3,166.1,62.9,165.8,61.7,164.7z"/>
		<path class="st18" d="M72.8,162.8c0,1.4,0,2.1,0.2,2.3c0.2,0.2,0.6,0.2,1.5,0.2c0.6,0,1,0,1.3-0.3c0.1-0.1,0.3-0.4,0.3-0.6
			c0-0.1,0-0.2,0.1-0.2c0.1,0,0.1,0.1,0.1,0.2s-0.1,0.9-0.2,1.2c-0.1,0.2-0.1,0.3-0.7,0.3c-0.8,0-1.4,0-2,0c-0.6,0-1,0-1.5,0
			c-0.1,0-0.4,0-0.6,0c-0.3,0-0.5,0-0.8,0c-0.1,0-0.2,0-0.2-0.1c0-0.1,0-0.1,0.2-0.1c0.2,0,0.3,0,0.4,0c0.2-0.1,0.3-0.3,0.3-0.6
			c0-0.5,0-1.3,0-2.3v-1.9c0-1.6,0-1.9,0-2.3c0-0.4-0.1-0.5-0.5-0.6c-0.1,0-0.2,0-0.4,0c-0.1,0-0.2,0-0.2-0.1s0.1-0.1,0.2-0.1
			c0.5,0,1.2,0,1.5,0c0.3,0,1.2,0,1.6,0c0.2,0,0.2,0,0.2,0.1s-0.1,0.1-0.2,0.1c-0.1,0-0.3,0-0.4,0c-0.3,0.1-0.4,0.2-0.4,0.6
			c0,0.3,0,0.6,0,2.3V162.8z"/>
		<path class="st18" d="M77.6,160.9c0-1.6,0-1.9,0-2.3c0-0.4-0.1-0.5-0.5-0.6c-0.1,0-0.3,0-0.4,0c-0.1,0-0.2,0-0.2-0.1
			s0.1-0.1,0.2-0.1c0.6,0,1.3,0,1.7,0c0.3,0,1,0,1.4,0c0.2,0,0.2,0,0.2,0.1S80,158,79.8,158c-0.1,0-0.2,0-0.3,0
			c-0.3,0.1-0.4,0.2-0.4,0.6c0,0.3,0,0.6,0,2.3v1.5c0,1.6,0.3,2.2,0.8,2.6c0.5,0.4,1,0.4,1.4,0.4c0.5,0,1-0.1,1.5-0.6
			c0.6-0.6,0.6-1.5,0.6-2.6v-1.4c0-1.6,0-1.9,0-2.3c0-0.4-0.1-0.5-0.5-0.6c-0.1,0-0.3,0-0.4,0s-0.2,0-0.2-0.1s0.1-0.1,0.2-0.1
			c0.6,0,1.3,0,1.3,0c0.1,0,0.9,0,1.3,0c0.2,0,0.2,0,0.2,0.1s-0.1,0.1-0.2,0.1c-0.1,0-0.2,0-0.3,0c-0.3,0.1-0.4,0.2-0.4,0.6
			c0,0.3,0,0.6,0,2.3v1.2c0,1.2-0.1,2.5-1.1,3.3c-0.8,0.7-1.6,0.8-2.3,0.8c-0.6,0-1.7,0-2.5-0.7c-0.6-0.5-1-1.3-1-2.9V160.9z"/>
		<path class="st18" d="M87.4,160.9c0-1.6,0-1.9,0-2.3c0-0.4-0.1-0.5-0.5-0.6c-0.1,0-0.3,0-0.4,0c-0.1,0-0.2,0-0.2-0.1
			s0.1-0.1,0.3-0.1c0.6,0,1.3,0,1.5,0c0.6,0,1.3,0,1.7,0c2,0,2.4,1,2.4,1.6c0,0.8-0.6,1.5-1.2,1.9c0.9,0.3,2,1.1,2,2.3
			c0,1.2-0.9,2.3-2.9,2.3c-0.1,0-0.5,0-0.9,0c-0.4,0-0.8,0-0.9,0c-0.1,0-0.4,0-0.6,0c-0.3,0-0.5,0-0.8,0c-0.1,0-0.2,0-0.2-0.1
			c0-0.1,0-0.1,0.2-0.1c0.2,0,0.3,0,0.4,0c0.2-0.1,0.3-0.3,0.3-0.6c0-0.5,0-1.3,0-2.3V160.9z M88.8,161.1c0,0.1,0,0.1,0.1,0.1
			c0.1,0,0.3,0,0.5,0c0.4,0,0.7,0,0.9-0.2c0.3-0.2,0.5-0.6,0.5-1.1c0-0.7-0.4-1.6-1.4-1.6c-0.2,0-0.4,0-0.5,0
			c-0.1,0-0.1,0.1-0.1,0.2V161.1z M88.8,164.3c0,0.7,0,0.9,0.4,1.1c0.3,0.1,0.5,0.1,0.8,0.1c0.6,0,1.4-0.3,1.4-1.5
			c0-0.5-0.2-1.3-1-1.9c-0.2-0.2-0.5-0.3-1-0.3h-0.5c0,0-0.1,0-0.1,0.1V164.3z"/>
	</g>
</g>
</svg>
